<?xml version="1.0" standalone="no"?><!DOCTYPE svg PUBLIC "-//W3C//DTD SVG 1.1//EN"
        "http://www.w3.org/Graphics/SVG/1.1/DTD/svg11.dtd">
<svg t="1579183317771" class="icon" viewBox="0 0 1038 1024" version="1.1" xmlns="http://www.w3.org/2000/svg" p-id="1687"
     xmlns:xlink="http://www.w3.org/1999/xlink" width="129.75" height="128">
    <defs>
        <style type="text/css"></style>
    </defs>
    <path d="M924.277 111.113l0 0c-27.983-27.983-73.685-27.983-101.667 0l-316.674 316.674 101.667 101.667 316.674-316.674c27.983-27.983 27.983-73.685 0-101.667z"
          p-id="1688" fill="#ffffff"></path>
    <path d="M474.437 543.236c-1.969 10.406 7.172 19.546 17.718 17.718l103.073-18.983-101.667-101.667-19.124 102.933z"
          p-id="1689" fill="#ffffff"></path>
    <path d="M831.112037 933.891755c0 18.601892-15.1887 33.790592-33.790592 33.790592l-696.290988 0c-18.601892 0-33.790592-15.1887-33.790592-33.790592L67.239865 90.15091c0-18.601892 15.1887-33.790592 33.790592-33.790592l696.290988 0c11.775509 0 22.015083 5.973084 27.988167 15.018041L861.830757 35.027874C846.300737 16.767301 823.261697 5.162452 797.321445 5.162452l-696.290988 0C54.269739 5.162452 16.212658 43.219533 16.212658 90.15091l0 843.911504c0 46.760718 38.057081 84.988459 84.988459 84.988459l696.290988 0c46.760718 0 84.988459-38.057081 84.988459-84.988459L882.480563 293.065122l-51.197867 51.197867L831.282697 933.891755z"
          p-id="1690" fill="#ffffff"></path>
    <path d="M716.770135 687.118037 181.752427 687.118037c-11.263531 0-20.479147 9.215616-20.479147 20.479147l0 12.799467c0 11.263531 9.215616 20.479147 20.479147 20.479147L716.770135 740.875797c11.263531 0 20.479147-9.215616 20.479147-20.479147l0-12.799467C737.249281 696.333653 728.033665 687.118037 716.770135 687.118037z"
          p-id="1691" fill="#ffffff"></path>
    <path d="M614.374401 283.166868 181.752427 283.166868c-11.263531 0-20.479147 9.215616-20.479147 20.479147l0 12.799467c0 11.263531 9.215616 20.479147 20.479147 20.479147l378.864214 0L614.374401 283.166868z"
          p-id="1692" fill="#ffffff"></path>
    <path d="M613.009125 559.294029l-139.428857 25.769593c-14.164743 2.559893-26.452231-9.727595-23.892338-23.892338l1.535936-8.703637L181.752427 552.467647c-11.263531 0-20.479147 9.215616-20.479147 20.479147l0 12.799467c0 11.263531 9.215616 20.479147 20.479147 20.479147L716.770135 606.225407c11.263531 0 20.479147-9.215616 20.479147-20.479147l0-12.799467c0-11.263531-9.215616-20.479147-20.479147-20.479147l-110.587392 0L613.009125 559.294029z"
          p-id="1693" fill="#ffffff"></path>
    <path d="M181.752427 471.575018l247.968335 0 53.75776-53.75776L181.752427 417.817258c-11.263531 0-20.479147 9.215616-20.479147 20.479147l0 12.799467C161.27328 462.359402 170.488896 471.575018 181.752427 471.575018z"
          p-id="1694" fill="#ffffff"></path>
    <path d="M737.249281 451.095871l0-11.946169-32.425316 32.425316 11.946169 0C728.033665 471.575018 737.249281 462.359402 737.249281 451.095871z"
          p-id="1695" fill="#ffffff"></path>
</svg>
