<svg xmlns="http://www.w3.org/2000/svg" width="80" height="72" fill="none">
    <path d="M76.5 3.3c-1.1-1.1-54.6 12.4-56.3 14.6-1.7 2.2-4.5 8.2 1.8 11 6.3 2.8 12.8 3.6 12.8 3.6s-3.2 25.6-3 25.3c.2-.3 11.8-13.4 11.8-13.4s3.8 5 5.5 5.2c1.7.2 28.1-40.6 28.2-43.1.2-2.5-.8-3.2-.8-3.2z"
          fill="#88D8D8"/>
    <path d="M79.1 3.4c-1.6-4-7.1-2-10.3-1.2-3.2.8-7 1.1-10.4 2.5 0 .1.6 1.4.2 1.2-2-.7-2-.8-4-.3-1.5.3-3.2.9-4.5 1.3-.6.1-2.1.2-3.1.6-.9.3-1.8 1.5-2.4 1.8.4-.2-4.2-.1-3.1.3-.5.5-3.5.9-4.2 1.1-.6.2-4.1 2-4.2 1.2.1.2.2.3.3.4.1-.5-12.1 4.1-12.4 4-.1 0-.1-.7-.3-.5-2.5 1.2-5.4 2-8.1 2.8-2.5.7-9.8 2.1-11.4 4.1-1.5 2 2.2 3.4 4.4 4 1.8.5 8.6 3 9.7 1.9 0 0 17.8 4.7 17.9 5.2.4 2.8-.5 7-1 9.6-.4 2.1-.7 4.1-1 6.2-.1 1-1.4 5.2-1 5.9.1.1.7-.3.6-.1-1.3 3 0 4.3 1.9 3.4 1.8-.9 5.2-5.2 6.5-7.4-.1 0-1.3-.7-.9-.8 2.7-.4 3.8-3.7 5.1-4-1.1 0 4.4 3.5 4 3.2-.4-.3 2 3.7 1.7 2.6.6.1 2.4 2.7 2.9 3.2.4.4 3.7 2.6 3 3.1.1-.1.2-.3.2-.4.2 0 5.8 6.6 6.5 7.4 1.5 1.6 4.4 5.6 6.7 4.1 1-.7 1.5-4.1 1.8-5.3.5-2 1.1-4 1.5-5.9.7-3.1.8-6 1.5-9 .4-1.8 2.8-9.8 1.4-10.9.1.1 1.2-6.3 1.3-7.1.5-2.9.9-5.7 1.2-8.5.3-3.5.8-6.9 1.2-10.4.3-2.4 1.4-6.8.8-9.3zm-23.8 3c.3-.2.5-.1.6.1 0 .2-.8.2-.6-.1zM6.7 21.7c-.4.1-.5 0-.4-.3.5-.1.6 0 .4.3zm.1-.4c.3-.8 1.4 0 .6.4.1-.1-.6-.2-.6-.4zm2.4 3.5c-.9.6.4-.1 0 0zm24.1 7.8c-.6-.3.4-1.1 0 0zm-.1-2.1c-.3.2-1.9.3-1.7 1-1.2-.3-.3-.5-.4-1-.1-.5-4.8-1.7-5.4-1.8-.6-.1-.7.7-1.4.5-.1 0-2.5-1.4-2.4-1-.5-1.7-13.9-4.5-14-3.7 0-.2.3-.6.4-.6-1.9.6-.3-.1-.3 0-.3.1-.6.1-1 0 .4-.1-.3-.2-.3-.2.5 0 1.1-.1 1.6-.1-.4 0-.2-.1-.4-.1 1.6.4 5-1.5 6.7-2.1 2.9-1 5.3-1.9 8.2-2.8 3.2-1 6.1-2.2 9.3-3.2 2.1-.7 7.3-1.6 8.2-3.3-.1.3 7.3-1.7 8.5-2.1.8-.3 8.4-1.5 8.6-2.1.1-.4.2-.7.2-1.4-.2-.1-.8.5-1 .1-.1-.1 8.6-.1 9.1-1.2-.1.1 1.8-.4 1.5-.9.1.1-.1.3-.2.4.4.1 4.2-1.5 4.8-.7-2.7 1.6-5.3 3.9-7.8 5.6-.9.6-6.8 3.4-4.6 4.9-.7.5-.5-.2-.8-.4.4.3-1.9.9-1.9.9-.6.6-.6 1.9-.8 2.1-.5.3-1.3.1-1.8.3.1.1.1.3 0 .4-1.1-.8-4.2 1.7-5.7 2.8-1.1.8-1.7 2-2.3 2.5-.5.4-1.6.6-2.5 1.4-.4.3-.8 1.1-1.3 1.5-.7.5-2.1 1.2-2.6 1.6-1.2.9-1.3 1.3-2.8 2.1-.4.2-.7.8-1 .9-.4.2-2.3-.6-2.7-.3zm27.6-16.1c-.4.2-.5-1 0 0zm-13.6 8.7c-.3.1-.3-.4-.2-.6.2-.2.6.6.2.6zm-6.8 25.3c-.4-.1.1-.5.3-.4.3.1.2.2-.3.4zM45 40c.1 2.4-7.7 6.2-7 8.1 0 .2.4.9.7 1.2.3-.1.3-.9.8-.7 1.6.7-2.3 1.2-2 .9-.8 1-.9 2.1-2 3-1 .9-.8-.3-1.4 1.3.1-.2 0-.5 0-.6-.3.8-.5 1.8-.9 2.6 0 0 .5-1.2.4-1.3-.1 0-.1 0-.1-.1 0 .2-.7 1.6-.7 1.7-.2-.3-.1-1 .1-1.3-.2.3-.3.6-.5.9.1-.4 1-1.6.9-2-.1-.2.2-.4.5-1.3-.1.1-.2.1-.3.1 1.4-1.5 1.2-6.1 1.5-8.2.3-2 .6-3.6.9-5.5.3-1.6-.4-4.4.4-5.8.8-1.4 3.9-3 4.8-3.6 2-1.3 3.7-2.2 5.5-3.4.9-.6 5.6-3.3 5.2-4.4 0 .1 13.3-9.5 14-9.9.1.1.2.2.2.3-.3-.5.3-.1.3-.6-.1.6.6-.4.6-.4l-.3.6c-.1-.3.6-.5.6-.8-.1.1-.2.2-.2.3-.1.1.5-.6.5-.6-.1.2-.2.3-.4.5.3-.4.6-.8 1-1.2-.2.3-.4.6-.6.8l.3-.3c-.2.2-.4.5-.6.8.6-.6 1.1-1.3 1.7-1.9-.5.5-.9 1.1-1.4 1.7 1.2-1.3.6-.5.4-.4l.1-.1c0 .1-.1.2-.2.2.3-.3 0 0 .4-.1l-.3.3c.1-.2.3-.3.5-.3-.4.4-.9.9-1.4 1.2.3-.2.7-.5 1.1-.8-.3.2-.6.4-.9.7.1-.2.2-.3.2-.2l.9-.6c-.6.3-.9.7-1.4 1.1-.2.1.3-.1.4-.2-.2.1-.4.3-.6.4.3-.1.7-.4 1-.5-.2 0-.8.4-1 .5.2-.1.3-.1.5-.2-.2.1-.5.2-.7.3.1-.1.3 0 .1 0 .1-.1.2-.1.3-.1-.3.1-.3.1 0 0-.5.1.3 0-.3.1.1 0 .9.6.9.4 0-.4-1.6.3-1.8.5-.1.2.4.3.3.3-.6.4-2.6 3.9-2.7 3.9-.1 0-.8-.2-.9-.1-.1.3.3.2.4.4-.4-.8-5.2 6.3-5.2 6.3-.1 0-.4-.5-.5-.3-1.4 2.7-4.3 5.1-6.5 7.7-1.2 1.4-2.4 2.9-3.3 4.6-.3.5-.5 2.2-.7 2.4.1.6-1.6 1.1-1.6 1.7zm7.2-8.4c-.3-.9.7 1.3 0 0zm.1.3c-.4.3.2-.1 0 0zm18.8 26c-.2.1-.5-.3-.5-.5.4-.1.9-.1.5.5zm0-.7c-.3-.5.6-.3 0 0zm.2-12.1c0-.5.9.3.5.6-.3.2-.5-.4-.5-.6zm4.5-37.9c.7 1.8-2.5 16 0 15 0 1.3-.5.4-.8.5-.3.1-.9 5-.9 5.4 0 .5.8.8.7 1.4 0 .1-1.1 2.7-.7 2.5-1.8.8-1.9 6.8-2.4 9.2-.8 3.6-.6 5.8-1.3 9.1-.6 2.8-1.6 5.7-2.3 8.6-.5 1.9-.7 5.3-1.4 7 .1-.3-.3-.6-.2-.9.1-.4-6.9-6.5-7.6-7.3-1.5-1.6-4.9-5.9-6.7-5.8.5 0-5-5.5-5.6-6.4-1.7-2.2-.9-.9-.1-2.7.4-.9 1.4-1.7 1.9-2.2 1.2-1.4 2.3-3.4 3.3-4.6.1-.1 3.8-4.7 4-4.7 1.2-.2 2.3-2.5 3.2-3.6.9-1.1 2.3-2.4 3.3-3.7 1.3-1.6 5.8-6.6 5.3-7.9 0-.1 6.8-6.6 7.3-8.2 0-.1-.1-.5 1.2-1.5 0 0-.1 1-.2.8zm.7 13.3c-1 .4.3-.1 0 0z"
          fill="#222525"/>
    <path d="M29 63.1c-2.8.6-2 1.4-3.9 2.7-.6.4-3.2.6-3.4 2.1-.5-.2-5.2.6-5.4.3-.8-1.2-4.1-1.1-5.6-2.8-.7-.8-3.5-5-3.3-5.6.2-.6.7-.7-.2-1 .7.3.5-2.6.6-3 .7-1.5.2-1 1.7-.8 2 .2 4.1 2 6.5 1.7 3.1-.3 6.1-3 6-5.8-.1-2.1-.8-3.4-2.6-4.5-.4-.2-3.1-1-2.8-.5-1.4-2-6.9 1-8 2.6l.9.9c-.3-.1-3.7.1-3.6-.2.4-1.1-.5-1.6-.9-2.5-.5-1-.1-.9-.3-2.4-.1-1.3-.6-1.7-.3-3 .3-1.6 1.2-2 .2-4.1-4.1 2.2-1.1 7.7-2.1 10.7.6.4 2.2 3.4 2.5 4 .6 1.4 0 .8.2 2.4.1 1 .5 1.3.6 2 0-.2-1.2 1.2-1.2 1.7 0 .2.3 0 .4 0-.6-.6.7 5 1 4.4 0 .1-.6.6-.6.6.1.3.4-.1.5-.1-1.9 0 4.3 7 4.3 6.2 0 .1-.4.5-.3.5 3.9 1.3 7 3.1 11.7 1.6 2.2-.7 3.6-2.2 4.6-3.2 1.4-1.6 2.8-2.3 2.8-4.9zm-11.6-8c-.6-.8 0 0 0 0zm-9-5.3s2.1-.1 1.7.4c.6-.7.5-.7 1.3-1.3.2-.1 2.1 0 1.5-.6.1.1.2.2.3.2.1-.3-.1-.7.1-1-.2.2.2.4.3.5.1 0-.1-.5 0-.5.5.1.4 0 .6 0 .4 0 1.1.8 1.3.9 1.2.6 3.3.5 3.2 2.7-.1 1.5-3.5 2-2.7 3.9-.7.2-.3-.5-.4-.8 0-.1-.8.4-.8.3-.5-.2-.3-.7-.9-.7-.6 0-1.1.9-1.4.9-.1 0-1.3-1.7-1.3-1 0-1-2-1.7-2-2 0-.1 1.2-2.2-.4-1.9-.2.2.6.4-.4 0zm-.4.4c.3-.1.3.6 0 0zm-1.5-.6c-.3.3-.6-.2-.4-.2.1-.1.8-.2.4.2zm11.7 21.1c-.1.4.4-1.1 0 0zm.2.1c-.3-.5.2-.5 0 0z"
          fill="#222525"/>
</svg>

