<svg t="1579180904965" class="icon" viewBox="0 0 1024 1024" version="1.1" xmlns="http://www.w3.org/2000/svg" p-id="1080"
     xmlns:xlink="http://www.w3.org/1999/xlink" width="64" height="64">
    <defs>
        <style type="text/css"></style>
    </defs>
    <path d="M893.490196 865.380392 893.490196 865.380392c-30.117647-128.501961-124.486275-234.917647-246.964706-279.090196l0 0c88.345098-48.188235 146.572549-140.54902 146.572549-246.964706 0-154.603922-124.486275-281.098039-279.090196-281.098039S232.909804 186.729412 232.909804 341.333333c0 106.415686 60.235294 198.776471 146.572549 246.964706l0 0c-120.470588 44.172549-212.831373 144.564706-246.964706 271.058824-2.007843 8.031373-4.015686 22.086275-4.015686 22.086275 0 46.180392 38.14902 84.329412 84.329412 84.329412l598.337255 0c46.180392 0 84.329412-38.14902 84.329412-84.329412C895.498039 875.419608 895.498039 871.403922 893.490196 865.380392zM293.145098 335.309804c0-120.470588 98.384314-218.854902 218.854902-218.854902s218.854902 98.384314 218.854902 218.854902-98.384314 218.854902-218.854902 218.854902S293.145098 455.780392 293.145098 335.309804zM805.145098 909.552941l-2.007843 0L331.294118 909.552941l-110.431373 0c-16.062745 0-28.109804-12.047059-28.109804-28.109804 0-2.007843 2.007843-6.023529 2.007843-6.023529 36.141176-142.556863 164.643137-248.972549 319.247059-248.972549 154.603922 0 283.105882 106.415686 319.247059 248.972549l0 0c0 2.007843 0 4.015686 0 8.031373C831.247059 897.505882 819.2 909.552941 805.145098 909.552941z"
          p-id="1081" fill="#ffffff"></path>
</svg>
