<svg width="100" height="100" fill="none" xmlns="http://www.w3.org/2000/svg">
    <path d="M50 100c27.614 0 50-22.386 50-50S77.614 0 50 0 0 22.386 0 50s22.386 50 50 50z" fill="#CCD9DA"/>
    <path d="M88.97 68.16c-.133-.082-.098-.243-.027-.384.063-.12.02-.209.015-.308-.004-.063-.17-.05-.323.017-.05.023-.086.086-.14.046-.014-.01.018-.06.044-.07.227-.09.237-.18.238-.246 0-.081.053-.2-.155-.186-.192.014-.189-.047-.046-.18.172-.158.18-.264.018-.292-.156-.025-.171-.13-.207-.22a1.323 1.323 0 0 0-.069-.158c-.024-.052.013-.162-.226-.027-.014.007-.059-.018-.045-.033.133-.142.062-.148-.082-.102-.144.046-.13-.002-.04-.11a.202.202 0 0 0 .046-.097c-.238.092-.123-.026-.055-.144.048-.083-.027-.11-.134-.107-.16.002-.365.047-.361-.1a.371.371 0 0 0-.14.07c-.24.2-.411.305-.47.282-.103-.04-.062-.13.167-.374.289-.304.311-.534.035-.439-.117.04-.175.053-.066-.099.178-.25.14-.334-.008-.32-.086.01-.105-.033-.088-.125a.15.15 0 0 0-.056-.165c-.018-.012-.114.051-.179.097a.762.762 0 0 0-.081.13.211.211 0 0 0-.017.059c-.025.007-.069.031-.07.018-.007-.062.005-.142-.007-.2-.013-.058-.1-.055.092-.253-.013-.01-.014-.043-.038-.028-.119.076-.103-.002-.13-.03-.046-.044-.056-.135-.28.08-.025.025-.07.042-.078.032-.063-.07-.143-.123-.053-.343.065-.157.064-.255.004-.3a1.034 1.034 0 0 1-.146-.165c-.038-.046-.083-.034-.186.095-.104.13-.18.157-.134.04.097-.244.04-.338-.112-.303-.058.011-.045-.024-.022-.08.068-.168-.006-.163-.093-.06-.14.164-.152.094-.213.088-.059-.003-.176.144-.233.102-.154-.093-.407.022-.433-.314a.052.052 0 0 0-.037-.047.052.052 0 0 0-.057.02c-.09.088-.039-.04-.052-.073-.032-.093-.084-.049-.175.133-.113.226-.158.28-.19.172-.033-.112-.113-.176.027-.532.06-.153.045-.267-.026-.27-.033.001-.052-.087-.108.047-.033.08-.057.164-.07.25.046.037.043.115-.034.226-.058.086-.04-.038-.053-.088a.44.44 0 0 1-.005-.315c.039-.142.001-.124-.043-.108-.198.072-.392.215-.451-.204-.013-.088-.089-.095-.145-.076-.053.017-.124.155-.172.16-.047.005-.077-.17-.118-.13-.114.115-.189.02-.28.02-.044 0-.12.102-.13.052-.042-.201-.129-.094-.191-.144-.056-.047-.092-.027-.119.22-.024.215-.072.227-.11.047-.036-.171-.073-.346-.166-.141-.01.022-.047-.014-.06-.057-.055-.206-.128-.286-.194-.134-.09.21-.159.152-.247.036-.087-.119-.186-.09-.27.048-.088-.19-.18-.166-.271-.095a.181.181 0 0 1-.206.029c-.085-.041-.138.111-.21.111-.007 0-.015.009-.02-.003-.11-.24-.204-.084-.306-.116-.033-.01-.068.126-.086.09-.057-.112-.074-.074-.115-.014-.107.161-.267.09-.37.26-.005.011-.027-.012-.039-.036-.099-.206-.105.037-.158.042-.063.007-.143-.063-.216-.09-.01-.005-.01.05-.019.055-.075.047-.107.189-.114.385-.001.033-.025.053-.04.033a.505.505 0 0 1-.053-.145c-.014-.069-.014-.137-.03-.206a.671.671 0 0 0-.061-.16c-.02-.033-.05-.06-.063-.051-.014.011-.016.066-.018.109-.013.188-.016.36-.171.15-.074-.096-.163-.108-.215-.067-.148.111-.142.12-.344.04-.063-.027-.118-.021-.13.114-.012.12-.06.197-.15.157-.064-.026-.143-.09-.194-.074-.051.014-.07.114-.117.138a.812.812 0 0 1-.263.07c-.094.013-.174.046-.12.313.035.168-.026.037-.072-.052-.014-.028-.048-.07-.054-.068-.096.05-.284-.052-.192.32.027.111 0 .112-.072.065-.104-.07-.175 0-.28-.104-.214-.215-.11.116-.205.095-.056-.014-.08.067-.14.016-.123-.105-.154-.043-.2-.016-.12.08-.23.172-.328.276-.076.066-.235.024-.217.224.007.053-.067.035-.12.022-.25-.063-.33.13-.5.197.094.237-.157.116-.098.322.024.083-.069.114-.16.082-.152-.053-.287-.108-.16.132.016.03-.066.019-.107.023-.024.002-.085-.031-.087-.014-.003.077.075.223-.093.143-.199-.094.009.166-.089.178-.095.009-.208.038-.145.195.072.179-.232-.008-.246.096-.008.068-.085.083-.046.196.023.064-.019.123-.172.07-.152-.05.132.227-.092.142-.046-.016-.103.001-.093.03.077.225-.137.257-.194.393-.04.08-.126.168-.043.288.129.184.14.248-.143.186-.022-.005-.04.02-.027.035.141.175-.023.213-.07.304-.051.101-.085.203.076.358l1.51.568-.002.004-1.475-.56c.026.05.065.094.111.127.054.041.02.117-.054.117-.16.002-.151.071-.159.127a1.4 1.4 0 0 1-.15.61.583.583 0 0 0-.046.112c-.015.03-.04.059.107.094.035.008.09.044.085.055-.063.12.005.268-.293.332-.107.023-.14.057-.054.11.065.041.075.065-.017.08-.115.02-.115.06-.035.115.03.02.035.056.002.064-.299.078.104.24-.047.334-.01.006.068.036.113.05.06.02.187.04.185.048-.01.024-.091.04-.099.064-.025.064-.043.13-.055.198-.008.023-.004.06-.046.065-.28.03-.126.107-.15.17-.041.133.078.258.188.382.068.078.188.146-.116.2a.07.07 0 0 0-.058.055.069.069 0 0 0 0 .029c.029.101.05.204.064.309a3.225 3.225 0 0 1-.05.473c-.014.093.012.178.157.247.051.024.08.072.037.103-.123.083-.148.15.014.196.02.007.006.041-.026.058-.172.092-.057.156-.07.233-.018.088.386.113.64.113.046-.001-.25.118-.29.142-.143.079-.129.3-.12.355.027.218.409.162.454.36.005.028 0 .062.021.083.04.04.107.066.149.104.047.041-.032.156.153.119-.131.104-.076.144-.051.19.034.056.009.147.159.138.083-.007-.128.192.067.163.074-.012.018.121.032.184.01.054 0 .128.053.151.17.081.174.065.08.385-.003.014.005.027.02.023.21-.071.19.082.305.089.149.003.16.12.242.175.05.03.082.075.163.076.103.007.146.097.15.23a.21.21 0 0 0 .172.207c.043.011.068.01.061.083-.006.089.03.165.101.151.17-.032.219.091.315.154.019.016.058 0 .085.003.025.003.075-.009.066.019-.057.175.049.129.08.182a.424.424 0 0 0 .121.106c.045.04.072.152.145.098.129-.097.029.165.115.1.123-.092.165-.026.217.024.033.035.084-.003.146-.07.097-.105.122-.067.128.04.005.11.017.27.073.235.12-.076.157-.035.175.116.01.08.097.052.158.044.136-.015.278-.077.381.002.142.095.295.174.455.235a.177.177 0 0 0 .13-.017c.148-.054.289-.103.395 0 .05.054.068.216.145.185a.153.153 0 0 0 .07-.082c.056-.22.066-.274.125-.147.052.11.093.398.242.151.01-.016.03-.008.031.013.02.245.124.067.19.082.102.019.228-.15.312-.028.068-.143.094-.083.125.034.045.168.106.266.22.097a.296.296 0 0 1 .433.008c.09.184.192.226.32.1.035-.036.07.038.1.09.058.114.15.038.196.232.128-.217.249-.103.376-.232.077-.074.156-.065.193.202.016.108.05.085.077-.006.094-.324.161-.262.237-.013a.39.39 0 0 0 .073.14c.033.045.06.026.065-.117.004-.085.009-.278.04-.199.07.174.156.077.23.192.12.19.247.133.334-.117.052-.153.111-.173.174-.068.045.077.083.092.118.077.153-.07.357.21.504.015.028-.037.087 0 .133.045.08.074.131.05.187-.012.083-.1.163-.252.27-.196.14.077.184-.052.25-.13.084-.095.146-.198.335-.012.143.14.232.087.248-.059a.259.259 0 0 1 .201-.247c.106-.032.207-.078.301-.137.049-.035.047-.142.1-.165.06-.028.164.011.234-.004.064-.015.134-.026.068-.19-.023-.059-.01-.107.017-.12.09-.04.123-.15.31-.072.045.021.189.058.015-.166-.14-.18-.15-.261-.015-.177.255.158.294.059.311-.062.004-.02-.008-.073.003-.065.228.149.135-.096.347.013.129.067.067-.098-.083-.263-.04-.043-.085-.084-.129-.126-.104-.1-.1-.135-.041-.122.08.022.157.05.232.083.112.045.11.046.228-.002.037-.018.158.032.157-.01a.537.537 0 0 1 .246-.498c.03-.022.09-.049.053-.093-.262-.31.158-.098.131-.226.2.086.176-.026.222-.072.034-.04-.01-.135.025-.172.038-.037.132-.031.198-.049.022-.007.041-.02.038-.043a1.057 1.057 0 0 0-.064-.217c-.046-.107.162-.018.197-.07.038-.054-.17-.263.114-.16a.488.488 0 0 0-.08-.103c-.093-.083-.214-.215-.131-.182.367.14.172-.084.249-.128.057-.034.038-.11.183-.099.105.006.172-.059.126-.136-.066-.111 0-.147.026-.207.031-.07.162-.101-.047-.269-.032-.026-.002-.05 0-.075 0-.103.27-.082.162-.238-.007-.012.013-.025.035-.02.174.037.144-.037.162-.078.049-.125.048-.268.108-.386.096-.204.217-.4.32-.607.031-.065.12-.12-.098-.243-.095-.053.007-.05.071-.06.034-.004.01-.04.011-.063-.137-.016-.33-.153-.433-.081a.562.562 0 0 1-.18-.025l-.462-.136c-.13-.039-.208-.107-.134-.118a.465.465 0 0 1 .17-.002.664.664 0 0 0 .474-.017c.158-.035.322-.036.48-.004.297.045.349.02.352-.104 0-.053 0-.115.073-.147.197-.083.232-.186-.019-.337-.124-.077-.23-.182.087-.219.068-.007.117-.08.077-.1-.108-.057-.05-.1-.067-.147-.031-.08-.034-.176-.157-.237-.141-.07-.145-.13-.117-.197.064-.154.19-.317.176-.488-.007-.073-.161-.167.21-.236.015-.003.035-.04.023-.043-.267-.065-.06-.227-.207-.321zM74.285 65.5c.03.018.058.04.083.064.114.099.28.351.247.415.005.003-.041-.034-.082-.061-.071-.047-.145-.097-.21-.131a.421.421 0 0 1-.196-.153c-.034-.056-.07-.132-.046-.143a.494.494 0 0 1 .204.01zm-.089.263c.028.054.097.147.074.152-.03.01-.129-.044-.199-.071l-.105-.187.23.106zm3.715 10.416c.005-.052.012-.103.022-.154l.1.023-.042.165c-.028-.01-.083.017-.08-.034zm9.427-5.757l.003-.014c.001.005 0 .01-.003.014zm.433-.214c-.227.011-.376.03-.183.149.013.008-.04.02-.078.024-.047.005-.14 0-.163.005.025-.111.04-.224.058-.336.12.018.238.055.347.11.025.016.042.048.019.048zm.127-.367a.612.612 0 0 1-.153-.006.133.133 0 0 1-.073-.045c-.01-.012.005-.022.011-.043.002-.04.007-.09.2-.1a.505.505 0 0 1 .153.018c.088.044-.01.162-.138.175zM29.63 72.266c.202-.181.1-.385.155-.576-.246-.074.005-.214-.199-.295-.082-.032-.054-.132.026-.19.131-.096.249-.177-.022-.218-.035-.005.017-.068.041-.105.013-.02.077-.052.065-.064-.059-.049-.223-.07-.059-.161.193-.109-.137-.092-.09-.178.048-.083.088-.191-.076-.23-.188-.046.137-.182.058-.251-.053-.045-.022-.116-.13-.146-.064-.017-.083-.082.052-.172.132-.09-.255-.023-.052-.148.04-.027.061-.079.032-.087-.222-.063-.116-.241-.19-.354-.044-.072-.047-.182-.187-.186-.216-.005-.268-.034-.035-.204.018-.012.012-.038-.007-.037-.22.008-.136-.131-.17-.212-.039-.09-.088-.166-.311-.14l-.03.015a.39.39 0 0 0-.168.002c-.068.013-.1-.057-.048-.11.108-.114.055-.151.02-.191a1.126 1.126 0 0 1-.307-.51.59.59 0 0 0-.048-.108c-.011-.03-.014-.067-.143.012-.03.019-.096.033-.099.022-.04-.126-.192-.184-.023-.44.06-.091.06-.139-.038-.118-.074.016-.097.006-.042-.07.069-.096.043-.126-.056-.108-.036.007-.066-.015-.05-.044.154-.267-.25-.1-.212-.276.002-.012-.075.02-.117.042-.055.028-.16.104-.165.097-.01-.025.036-.095.023-.118a1.23 1.23 0 0 0-.105-.19c-.01-.024-.04-.049-.016-.081.17-.223.002-.17-.032-.233-.077-.128-.258-.136-.428-.146-.107-.007-.237.032-.075-.234a.072.072 0 0 0-.03-.1 2.208 2.208 0 0 1-.288-.165 3.69 3.69 0 0 1-.327-.36.225.225 0 0 0-.293-.04c-.052.023-.108.014-.1-.04.019-.147-.014-.21-.154-.117-.018.01-.032-.024-.023-.059.049-.192-.073-.146-.12-.203-.052-.068-.337.22-.505.41.023-.106.054-.209.093-.31.04-.156-.117-.29-.157-.322-.157-.127-.382.2-.538.096-.021-.016-.039-.043-.067-.041-.052.002-.113.028-.165.03-.058.004-.072-.132-.178.022.028-.165-.035-.154-.08-.17-.059-.014-.095-.093-.197.013-.055.061-.022-.227-.144-.075-.047.059-.085-.078-.131-.12-.04-.034-.074-.1-.126-.08-.172.054-.168.065-.282-.236-.005-.013-.019-.018-.026-.006-.117.186-.19.052-.28.117-.113.082-.19.006-.284.012-.056.007-.106-.01-.17.037-.083.058-.168.01-.246-.098a.193.193 0 0 0-.252-.066c-.04.016-.06.031-.095-.03-.044-.075-.114-.117-.165-.066-.117.124-.225.044-.338.05-.024-.002-.047.034-.07.047-.022.013-.055.052-.064.024-.051-.175-.111-.078-.166-.104a.446.446 0 0 0-.158-.02c-.06-.01-.144-.089-.173-.005-.052.153-.115-.117-.15-.016-.05.147-.12.117-.19.105-.047-.01-.068.05-.082.14-.023.14-.064.122-.129.035-.064-.087-.165-.218-.193-.157-.058.133-.111.12-.211.007-.055-.06-.112.012-.16.054-.105.092-.194.213-.325.211a2.81 2.81 0 0 0-.526.075.191.191 0 0 0-.104.087c-.093.138-.183.263-.337.246-.075-.012-.191-.131-.239-.06a.144.144 0 0 0-.01.108c.088.212.11.255-.016.197-.111-.053-.33-.25-.299.041.002.02-.02.026-.036.01-.173-.176-.15.03-.215.062-.103.048-.093.272-.244.238.038.156-.023.129-.128.064-.15-.093-.271-.12-.252.086.014.158-.227.366-.359.327-.204-.056-.328-.01-.331.188 0 .053-.083.035-.144.026-.131-.025-.145.102-.329.015.069.248-.11.272-.095.466.007.112-.053.172-.289.039-.095-.053-.101-.01-.047.067.192.278.1.295-.15.203a.356.356 0 0 0-.156-.025c-.055.002-.057.037.053.128.066.055.216.176.134.154-.182-.048-.156.083-.294.072-.226-.018-.259.114-.113.332.093.136.075.194-.046.179-.087-.012-.121.008-.13.045-.033.158-.378.134-.313.357.014.042-.05.06-.11.066-.105.009-.114.06-.1.136.029.117.097.267-.015.298-.143.041-.082.146-.061.238.023.114.058.22-.202.211-.196-.006-.217.079-.126.185a.212.212 0 0 1 .028.285c-.05.087-.09.18-.118.277-.011.054.061.13.036.179-.025.056-.132.091-.176.145-.038.049-.09.101.072.182.056.029.078.074.066.1-.04.088.007.192-.187.251-.048.013-.182.077.094.138.223.049.281.105.123.128-.3.044-.27.148-.2.255.01.019.055.052.041.053-.269.037-.04.168-.27.226-.142.037.013.125.233.152.059.007.12.008.18.01.144.009.163.039.11.068a1.79 1.79 0 0 1-.233.094c-.113.041-.12.041-.17.158-.014.04-.137.084-.109.116a.557.557 0 0 1 .15.555c-.007.038-.036.101.02.109.405.053-.045.183.065.26-.204.075-.111.143-.113.21.002.053.1.094.099.147-.002.053-.078.115-.115.175-.012.02-.018.043 0 .058.061.048.127.088.198.117.11.047-.104.125-.092.188.01.065.306.075.03.196.041.013.085.02.129.02.124-.003.302.011.22.045-.365.151-.07.18-.097.267-.02.066.044.108-.068.2-.081.067-.084.16.003.185.123.036.101.109.124.17.026.074-.045.188.221.167.042-.003.036.036.053.055.07.078-.135.252.05.293.014.004.01.028-.01.04-.15.096-.078.13-.06.175.058.128.157.238.205.371.083.225.15.465.244.701.03.074.018.184.256.108.103-.033.036.043.002.1-.019.028.026.037.043.054.101-.094.335-.143.346-.274a.53.53 0 0 1 .137-.12l.408-.254c.116-.071.218-.084.178-.02a.455.455 0 0 1-.109.128.627.627 0 0 0-.292.373 1.141 1.141 0 0 1-.304.376c-.225.198-.239.258-.14.346.044.037.095.078.074.156-.055.208.002.31.281.209.139-.049.29-.065.119.206-.037.057-.012.142.03.124.11-.048.105.025.154.04.083.023.156.079.28.022.143-.067.188-.032.22.03.075.14.109.337.235.432.055.038.222-.023.025.299-.008.013.003.051.013.044.218-.165.185.098.344.046.142-.05.225.076.263.225.03.129.117.15.182.211.042.041.147-.086.212-.24.02-.051.005-.12.068-.131.017-.002.024.055.013.08-.1.223-.052.292-.013.339.05.053.086.172.225.02.127-.143.163-.097.142.096-.024.229.034.313.17.222.127-.086.202-.025.285.022.047.029.098.053.15.072.05.022.093.127.185-.131.006-.015.055-.025.055-.004-.009.195.048.153.126.025s.1-.083.102.055c0 .037.009.072.028.103.12-.226.11-.06.137.074.018.094.094.067.172-.005.121-.106.25-.275.348-.16a.362.362 0 0 0 .06-.145c.048-.308.11-.5.17-.521.106-.034.137.057.128.391-.012.42.135.605.285.354.063-.11.099-.158.125.027.042.303.138.34.246.23.062-.064.11-.046.168.03a.179.179 0 0 0 .176.077c.025-.003.05-.116.067-.194a.73.73 0 0 0-.04-.15.207.207 0 0 0-.032-.053c.014-.024.03-.071.041-.063.054.04.107.106.163.138.056.03.121-.035.131.24.018-.003.047.02.053-.008.032-.14.083-.074.128-.075.071-.005.155.05.15-.26-.001-.036.02-.082.033-.08.106-.002.208-.028.328.183.086.153.174.212.26.191a.595.595 0 0 1 .225-.003c.053.005.07-.035.036-.197-.032-.162-.008-.236.047-.124.117.234.21.257.271.122.025-.05.042-.016.067.039.074.163.112.107.092-.027-.03-.213.024-.176.062-.219.036-.041.006-.228.068-.242.161-.031.248-.287.487-.06.033.033.079.01.078-.043 0-.125.05.002.08.018.08.044.085-.024.026-.22-.074-.241-.079-.313.012-.257.097.06.197.065.331.422.058.153.143.234.192.191.022-.022.091.034.044-.103a1.151 1.151 0 0 0-.113-.235c-.055 0-.103-.06-.122-.193-.014-.102.054.003.095.033a.455.455 0 0 1 .204.237c.063.134.077.096.098.057.092-.173.129-.424.437-.125a.093.093 0 0 0 .155-.023c.029-.044-.005-.195.028-.227.03-.032.16.088.166.032.013-.158.126-.127.192-.183.031-.027.025-.154.062-.121.148.132.155.002.234.007.073.008.088-.03-.038-.243-.11-.187-.08-.224.058-.1.13.116.26.236.212.018-.005-.024.044-.016.08.012.165.135.265.156.226-.006-.053-.22.028-.22.17-.17.142.05.203-.029.191-.188.18.106.241.038.273-.073a.174.174 0 0 1 .144-.143c.091-.014.042-.172.104-.21.006-.003.008-.015.018-.008.229.138.217-.042.32-.07.032-.011-.016-.141.02-.121.11.06.101.019.101-.053-.003-.194.166-.23.152-.43-.001-.013.03-.005.054.008.2.115.069-.09.112-.123.05-.041.158-.028.234-.049.011-.002-.02-.046-.014-.056.036-.083-.016-.219-.122-.386-.018-.028-.01-.059.015-.052a.487.487 0 0 1 .125.089c.051.047.09.105.142.152.043.038.091.07.143.096.034.015.075.02.08.004.006-.018-.024-.065-.046-.102-.096-.164-.193-.308.055-.233.119.035.203-.008.225-.073.064-.186.055-.185.273-.252.068-.02.11-.062.043-.182-.06-.106-.067-.204.03-.233.07-.022.17-.026.206-.073.036-.047-.008-.142.019-.194.049-.089.109-.171.178-.246.07-.079.115-.168-.098-.344-.134-.11-.003-.05.09-.013.03.012.083.021.086.014.047-.111.252-.187-.055-.408-.092-.066-.07-.087.016-.106.127-.027.137-.14.288-.141.309-.007.003-.185.09-.247.051-.038.012-.12.09-.134.161-.024.139-.102.153-.165.028-.164.04-.33.033-.497 0-.117.142-.228-.027-.356-.045-.033.015-.085.057-.124zm-1.072-1.952l.216.021-.219.126c-.06-.01-.177-.007-.168-.028.007-.03.109-.078.17-.12zm-10.406-5.066c.027.044.051.09.073.136l-.095.04c-.02-.05-.042-.105-.064-.155.029-.01.058-.064.086-.021zm-2.75 11.306c-.03.008-.065 0-.05-.017.134-.184.215-.31-.003-.236-.014.004.01-.045.03-.076.032-.046.12-.137.106-.138-.024-.004-.029-.018-.024-.037.078.104.154.21.24.308-.088.081-.19.147-.3.196zm.316.428a.506.506 0 0 1-.11.108c-.088.04-.119-.11-.048-.22a.608.608 0 0 1 .1-.116.133.133 0 0 1 .081-.028c.015 0 .014.018.026.036.03.027.065.063-.049.22zm11.374-7.945l-.003-.004 1.4-.7-1.397.704zm1.627 1.648a.443.443 0 0 1-.1.03c-.145.036-.448.025-.482-.039a2.502 2.502 0 0 0 .326-.127.42.42 0 0 1 .238-.07c.066.005.148.02.144.045-.011.049-.076.107-.126.16z"
          fill="#96BAB7"/>
    <path d="M49.576 44.329c-.064.018-.073.12-.043.178.179.352-.213.633-.348.94-.067.15.021.29-.02.434-.048.174-.222.354.019.545.025.02-.006.085-.046.093-.308.065-.255.174-.178.321.06.118-.025.247-.056.37-.033.132.07.22.34.25.149.016.21.038.202.122-.016.156-.071.29-.375.356-.244.052-.219.14-.028.231.242.116.29.247.209.383-.14.237.091.491.012.73-.031.093-.05.152-.285.143-.111-.004-.09.121.04.134.247.024.354.057.3.2a.718.718 0 0 0 .1.792.125.125 0 0 1 .018.14.127.127 0 0 1-.031.04c-.354.28-.218.636-.348.95-.042.105-.025.209-.25.274-.227.066-.186.16-.017.28.079.056.331.041.263.154-.059.097.044.23-.192.29-.266.069-.273.186-.167.34.105.15.097.287-.305.296a.716.716 0 0 0-.29.093c-.036.018-.057.08-.03.093.539.258.294.519.26.779a1.116 1.116 0 0 0-.029.147c0 .01.057.03.09.039.324.075.302.073.322.179.016.12 0 .241-.047.353a.226.226 0 0 1 0 .071l.599.062a.79.79 0 0 1-.017.426c-.04.099-.018.102-.35.11-.035.002-.094.01-.097.02-.004.05-.004.1-.002.149-.018.26.169.565-.41.708-.03.007-.022.072.01.097a.721.721 0 0 0 .266.148c.392.09.372.223.24.349-.133.128-.149.244.099.361.219.105.093.213.132.319.045.123-.2.06-.289.099-.188.083-.247.168-.036.275.208.106.172.203.194.311.068.328-.127.647.17.98a.123.123 0 0 1 .013.138.122.122 0 0 1-.032.036.68.68 0 0 0-.234.746c.032.144-.08.16-.328.142-.13-.009-.17.109-.06.123.234.029.243.089.26.182.04.242-.231.453-.127.701.061.143-.006.261-.262.339-.2.06-.238.143-.002.227.293.104.33.24.326.39-.003.083-.067.096-.218.093-.27-.006-.384.067-.369.198.015.123.083.259.01.365-.093.134-.159.234.14.33.039.013.064.078.037.095-.258.159-.102.351-.071.522.027.143-.073.27-.022.42.107.31.476.605.28.928-.033.053-.03.151.034.172.316.102.024.189-.005.273-.058.166-.638.123-.41.429.033.046.086.074.123.117.037.044.053.118.008.154-.035.027-.086.017-.126.034-.095.04-.071.183-.018.27.053.09.12.199.065.285l-.165-.005c.026.155.076.306.147.447a.14.14 0 0 0-.201.046.216.216 0 0 0 .02.223c.023.034.055.069.05.11-.01.08-.126.074-.204.096a.198.198 0 0 0-.049.34c-.042.11-.272.035-.295.15-.01.049.031.092.04.14a.15.15 0 0 1-.13.156.438.438 0 0 1-.22-.034.655.655 0 0 1-.171.286.225.225 0 0 1-.304-.002c-.032-.038-.046-.09-.084-.123-.097-.083-.297 0-.345-.118-.048-.122.175-.235.122-.355-.042-.094-.147-.042-.208-.09-.099-.076-.063-.051-.123-.142-.013-.018-.068-.231-.088-.279-.023-.058-.13-.085-.138-.156-.022-.187.207-.149.056-.323-.068-.08-.277.027-.296-.14-.012-.103.185-.137.208-.219.067-.237-.194-.286-.293-.525-.091-.222-.352-.29-.098-.501.112-.093-.184-.445-.29-.538-.188-.163-.403-.347-.101-.545.056-.037.055-.146-.109-.204-.04-.015-.064-.088-.042-.097.414-.15.269-.33.104-.524-.056-.066-.083-.176-.013-.222.171-.112.11-.233.109-.354 0-.148-.094-.31.222-.403.038-.011.055-.083.027-.096-.234-.107-.053-.255-.17-.354-.218-.187-.121-.248.233-.303.213-.033.327-.163.134-.271-.287-.162.021-.25.078-.36.039-.074.23-.118.343-.18.097-.051.102-.106-.06-.143-.296-.067-.557-.168-.488-.335.083-.21-.305-.575-.559-.796-.022-.02-.027-.063-.002-.073.26-.113.103-.28.123-.422.02-.14.015-.28-.012-.418-.023-.121.09-.241-.106-.366-.239-.15.174-.231.09-.37a.491.491 0 0 1-.071-.142c-.037-.16-.181-.356-.07-.474a.892.892 0 0 0 .116-.729c-.025-.126.101-.236.106-.364a.637.637 0 0 0-.116-.282c-.045-.092-.046-.231.05-.27.095-.038.24.045.288-.045a.47.47 0 0 1 .113-.62c.067-.05.158-.095.16-.177a.247.247 0 0 0-.085-.154c-.404-.467-.043-.56.225-.844.245-.26.162-.619.288-.88.044-.09.153-.09.19-.166.027-.058-.044-.11-.094-.148a.357.357 0 0 1-.12-.388c.115.01.28-.032.258-.145-.017-.087-.135-.104-.196-.17a.211.211 0 0 1 .02-.274.616.616 0 0 1 .261-.146c-.05-.092-.153-.142-.222-.221-.068-.08-.083-.23.015-.268.058-.023.127.009.185-.012.117-.042.079-.225-.013-.31-.329-.303-.118-.329.04-.69a.487.487 0 0 1 .096-.124c.107-.119-.285-.27-.023-.373.215-.085.126-.221.17-.334.05-.128.078-.264.082-.401.003-.14.185-.276-.055-.426-.023-.014-.011-.055.014-.07.286-.173.185-.384.135-.599-.042-.172.23-.231.533-.254.166-.012.168-.067.079-.131-.104-.076-.287-.146-.315-.222-.043-.116-.337-.242-.031-.36.206-.08.11-.222-.097-.281-.345-.098-.432-.168-.19-.322.128-.081-.034-.245.21-.321.029-.01.02-.082-.016-.097-.304-.125-.196-.27-.183-.411.014-.116.087-.227-.074-.351-.064-.05-.027-.154.035-.213.18-.17.346-.334-.055-.51-.023-.01.006-.079.049-.09.166-.043.175-.148.12-.188-.289-.21-.065-.37.13-.517.113-.083.134-.114.027-.21-.244-.216-.155-.453-.058-.665.185-.401.221-.399-.031-.727-.108-.14-.255-.266.009-.414.127-.072.048-.155.063-.251.01-.1.016-.201.016-.302a2.383 2.383 0 0 0-.057-.252.338.338 0 0 1 .136-.337.24.24 0 0 1 .332.077c.02-.112.06-.22.12-.318a.312.312 0 0 1 .29-.145.287.287 0 0 1 .205.172c.023.05.043.115.096.13.057.017.11-.031.155-.069.09-.073.2-.117.314-.124a.133.133 0 0 1 .1.024c.108.1-.258.47.07.473a.649.649 0 0 0 .27-.108.604.604 0 0 1 .198-.057.13.13 0 0 1 .092.015c.057.042.022.137-.037.174-.059.038-.133.045-.192.083a.223.223 0 0 0-.065.28.224.224 0 0 0 .067.08c.065.03.135.052.206.063.07.02.142.066.15.138.013.107-.116.168-.178.257a.239.239 0 0 0 .078.333c.074.04.19.069.18.153-.01.096-.186.11-.182.207.006.165.29.196.202.45-.063.186-.447.269-.12.443.104.055.24.118.26.183.023.09.31.198-.01.287zm6.658 21.902l-.008-.013-.13-.212a.316.316 0 0 1-.06-.147.61.61 0 0 1 .016-.114.333.333 0 0 0-.053-.231c-.031-.048-.078-.098-.063-.153a.328.328 0 0 1 .026-.053.282.282 0 0 0-.023-.22.112.112 0 0 1-.011-.056.212.212 0 0 1 .031-.061.12.12 0 0 0-.02-.137c-.027-.025-.127-.012-.139-.033-.02-.036-.038-.055-.05-.003-.022-.001-.044-.003-.065-.002a.596.596 0 0 0-.02-.096c-.013-.02-.046-.252-.033.002.002.05-.01.055-.018.03-.032-.09-.047-.015-.06.08a1.05 1.05 0 0 0-.154.05l-.11.042-.005-.046c-.012-.12-.019-.17-.028-.168-.016.005-.027.044-.019.234l-.032.013c-.025-.155-.042-.193-.052-.14-.019.1-.065-.102-.089-.053-.009.02-.015.03.002.218a.033.033 0 0 1-.008.025.144.144 0 0 0-.051-.105c-.033.09-.009.206-.077.274a1.037 1.037 0 0 1-.088-.272c-.002-.01-.004-.02-.013-.025-.016-.008-.03.014-.035.03a.567.567 0 0 1-.042.135c-.017.025-.054.028-.069.057-.006.013-.015.033-.028.027-.007-.004-.009-.012-.011-.019a.05.05 0 0 0-.074-.02.203.203 0 0 0-.033.052c-.064.099-.074-.107-.072-.138.002-.055.016-.134-.034-.173-.012.005-.033.024-.031.04.007.05.011.1.012.15 0 .032-.043.116-.04.129a.133.133 0 0 0-.05-.08l-.017.135-.065-.078-.09.145a.08.08 0 0 1-.034.035c-.032.013-.064-.02-.08-.05-.016-.03-.033-.068-.067-.076-.037.103-.07.206-.1.31-.046 0-.079-.048-.093-.093a.32.32 0 0 0-.052-.13.68.68 0 0 0-.065.305c-.1-.052-.058-.229-.154-.288-.087.13-.025.31-.075.46a.038.038 0 0 1-.02.026c-.014.005-.029-.007-.038-.02-.067-.09-.03-.231-.125-.306-.002.014-.02.042-.023.054a.09.09 0 0 1-.014-.043c-.035-.251-.024-.018-.032.005a1.88 1.88 0 0 0 0 .214c.004.134-.003.159-.025.054-.063-.31-.085-.155-.112-.07-.004.013-.019.014-.029.01-.01.078-.074.138-.1.212a.485.485 0 0 0-.012.281c.028.061.037.128.026.194-.023.065-.1.124-.071.187a.21.21 0 0 0 .048.053c.08.083.035.235.032.34a7.12 7.12 0 0 0 0 .44c.002.061.01.133.064.163l.047-.186c.006-.021.018-.048.04-.045.018.003.026.024.029.042a.407.407 0 0 1-.013.188.513.513 0 0 0-.03.11c-.01.125.06.076.111.036.012.05.026.1.043.15a.358.358 0 0 0 .018-.118c.018-.21.02-.181.082-.045.032.073.066.129.071-.073.002-.09.008-.074.026.011.033.149.07.32.07.08 0-.045.013-.042.031.088.005.034.015.053.014.035-.012-.326.02-.207.053-.073.012.046.027.07.027.015 0-.135.02-.084.033-.08.017.002.043.08.031-.17-.001-.03.006-.04.01-.018.029.19.033.05.053.146.037.18.038.107.02-.174-.011-.168-.004-.255.023-.097.038.233.027-.009.037-.051.006-.027-.002-.178-.003-.266 0-.075.006-.077.021.053.029.239.059.452.074.404.019-.057.033-.154.077.058.003.02.009.025.008.006-.004-.203.027-.07.042-.078.015-.01.033.004.051.033.016.025.023-.058.05.105.035.198.017-.125.04-.051a.417.417 0 0 0 .021.065c.022.038.054.164.062.082.01-.113.034-.046.053-.054.046-.02.073.088.118.082.053-.007.104-.252.12-.295l.03.196c.047-.023.019-.11.064-.136.015.059.035.116.06.17.008.032 0 .067.01.098.008.029.015.035.02.017.016-.052.047.035.046-.17 0-.036.01-.026.017.013.038.197.037-.091.078.145a.321.321 0 0 0 .003-.046c.002-.03.001-.099.006-.085.073.19.105-.04.16-.028.02.004.031-.066.062.043.023.079.03-.05.045-.093a.404.404 0 0 0 .01-.067c.007-.078.05.243.046.043 0-.058.045-.245.084-.097.005.018.017.037.035.036.022 0 .03-.027.034-.048.006-.05-.024-.209.063-.174.038.015.04.075.057.105a.399.399 0 0 0 .004-.103c-.004-.16.02-.076.04.091.036.278.05.352.053.168.001-.098.032.038.025-.154-.001-.023.008-.014.012.016.036.246.047.166.063.16.013-.005.022-.06.048.073.01.054.02.028.023-.02.008-.138.017-.261.066.063.003.017.009-.005.008-.038-.007-.132.005-.137.014-.093.045.236.049.061.053-.091.002-.088.018-.33.038-.243.043.198.03-.012.048-.089.035-.146-.017-.371.04-.168.025.086.051.204.05-.005-.002-.083.015-.088.03-.032.033.125.047.06.067.053.009-.003 0-.017.012-.012 0-.066.005-.132.015-.197 0 .031.012.061.031.085a.253.253 0 0 0 .037-.212.626.626 0 0 1-.022-.22.327.327 0 0 0 .014-.09.16.16 0 0 0-.025-.066zm5.791 12.153l-.042-.128a2.724 2.724 0 0 0-1.01-1.346c-.346-.175-.582.057-.965.042-.288-.014-.623-.118-.67.416-.014.18-.095.175-.232.014-.09-.099-.198-.231-.255-.236-.08 0-.283-.293-.222.085a.092.092 0 0 1-.08.1.092.092 0 0 1-.047-.005c-.35-.123-.42.392-.628.618-.095.11-.241.043-.345.123-.128.095-.222.326-.458.08-.024-.023-.067.024-.062.071.043.369-.066.326-.212.265-.114-.047-.199.07-.293.127-.1.057-.203.426-.302.118-.057-.174-.09-.24-.156-.217-.123.043-.218.128-.194.492.019.297-.066.273-.189.06-.156-.268-.274-.31-.368-.202-.166.194-.43-.062-.61.056-.07.048-.113.071-.061.35.023.132-.085.118-.118-.033-.066-.288-.114-.416-.222-.335a.464.464 0 0 1-.671-.085.079.079 0 0 0-.078-.033.08.08 0 0 0-.064.056c-.184.43-.5.284-.746.444-.08.047-.17.029-.203.293-.038.27-.123.222-.236.014-.052-.094-.057-.396-.147-.316-.08.066-.193-.057-.231.222-.043.316-.142.326-.274.193-.132-.127-.246-.122-.241.36a1.03 1.03 0 0 1-.076.344c-.014.043-.07.062-.08.028-.227-.66-.444-.391-.666-.368-.042.01-.084.018-.127.024a.318.318 0 0 1-.029-.114c-.056-.392-.056-.363-.142-.396a.471.471 0 0 0-.354.052l.024.75a.57.57 0 0 0-.364-.028c-.09.038-.09.01-.123.407a.347.347 0 0 1-.023.113.821.821 0 0 1-.553-.217c-.033-.033-.075-.076-.118-.062-.052.01-.07.076-.113.104-.307.194-.095-1.001-.463-.614-.128.137-.232.132-.293-.18-.057-.278-.165-.15-.25-.212-.095-.076-.086.227-.133.321-.104.213-.189.265-.24-.005-.053-.264-.142-.236-.227-.283-.265-.127-.577.019-.784-.401a.086.086 0 0 0-.117-.045.086.086 0 0 0-.035.03.489.489 0 0 1-.68.114c-.113-.066-.155.061-.208.354-.028.151-.137.17-.118.033.038-.279-.01-.302-.08-.345-.194-.113-.449.147-.623-.037-.1-.11-.218-.062-.369.217-.113.217-.198.236-.194-.057.01-.359-.09-.44-.217-.482-.066-.019-.099.052-.15.222-.086.312-.185.42-.294.364-.099-.052-.189-.17-.302-.118-.147.066-.255.108-.227-.26.005-.047-.042-.094-.066-.066-.231.246-.335.019-.468-.066-.108-.08-.25-.01-.354-.118-.217-.222-.302-.737-.656-.61a.09.09 0 0 1-.089-.01.09.09 0 0 1-.039-.08c.052-.386-.146-.08-.231-.08-.057.005-.161.142-.25.241-.138.161-.218.17-.237-.014-.061-.534-.392-.425-.685-.41-.146.004-.217-.194-.434.009-.024.019-.043-.014-.057-.033-.151-.199-.359-.185-.718.132-.457.312-.84.72-1.124 1.195-.147.359-.18 1.554.543 1.251a.172.172 0 0 1 .215.076.17.17 0 0 1 .021.08c.014.345.203.227.383.156.415-.16.392-.127.685.227.15.184.34.364.637.151.133-.099.152-.066.19.085.065.26.141.562.443.288.057-.052.156-.01.137.194 0 .052.052.104.071.08.303-.415.402-.189.51.066.033.085.123.156.194.095.165-.165.25-.057.364-.02.132.043.245.195.444-.136.023-.038.094-.038.099 0 .01.302.208.142.255.307.094.307.184.217.354-.17.104-.236.26-.326.293-.07.047.377.231.042.35.004.08-.024.184-.236.274-.35.075-.099.127-.094.108.104-.033.364-.019.695.156.662.217-.043.434-.142.562.212.014.033.052.052.066.024.18-.27.288-.052.425-.043.136.01.268.049.388.114.108.052.245-.052.316.207.085.317.255-.15.364-.018a.462.462 0 0 0 .118.118c.142.08.297.292.434.18.19-.157.336-.043.501-.039.449 0 .893.397 1.36.095.038-.02.08.085.123.127.02.02.047.071.057.071.165-.359.378.076.548-.222.033-.061.108-.076.132-.024.13.287.348.185.589.197.31.016.385.314.62.354.157.026.23-.243.39-.238.095.004.16.111.255.123.165.021.27-.243.431-.207.051.011.093.052.145.056.07.004.124-.057.188-.083.107-.044.225.012.34.032a.21.21 0 0 0 .255-.147.684.684 0 0 0 .754-.002c.315-.226.272-.57.759-.346.045-.096.133-.21.232-.17.037.021.069.049.095.082.17.16.393-.01.582-.03.172-.016.37.077.54.028.291-.084.383-.735.665-.692.174.023.174-.303.122-.662-.023-.198.024-.207.109-.113.095.113.208.317.288.34.118.029.312.35.345-.033.024-.255.18-.17.293.062.184.382.279.467.359.155.042-.165.245-.01.245-.311 0-.033.071-.043.1-.005.212.326.316.17.448.123.11-.038.19-.156.36-.005.07.061.155-.01.188-.094.1-.256.19-.487.506-.076.019.019.07-.033.066-.085-.024-.203.07-.246.132-.194.307.27.373-.033.435-.297.033-.152.193-.614.326-.525.297.199.236-.118.382-.302.274-.35-.094-.567.317-.401.557.217.95-.94.807-1.422zm26.329-33.305c.454-.512.439-1.867-.225-2.09-.029-.011-.075-.019-.076-.048-.012-.276-.255-.28-.38-.42-.252-.29-.483-.668-.995-.505-.17.055-.24-.02-.241-.215 0-.122.007-.278-.05-.337-.08-.077-.039-.396-.302-.173-.053.044-.166-.01-.21-.07-.282-.362-.774-.204-1.168-.252-.192-.026-.298-.182-.472-.227-.209-.055-.478-.006-.576-.314-.01-.033-.095-.038-.123-.007-.212.24-.303.139-.429-.005-.1-.114-.28-.106-.426-.142-.157-.037-.21-.17-.126-.427.046-.143.048-.21-.05-.243a.438.438 0 0 0-.554.17c-.16.198-.246.133-.27-.085-.027-.279-.159-.376-.346-.36-.322.028-.521-.3-.825-.332-.118-.008-.193-.013-.27.21-.035.105-.17.037-.138-.09.062-.24.062-.353-.122-.358a1.08 1.08 0 0 1-.892-.394.183.183 0 0 0-.216-.05c-.445.238-.82-.017-1.234.022-.136.01-.255-.036-.394.161-.14.2-.239.133-.336-.064-.046-.093.038-.335-.117-.296-.132.033-.267-.099-.397.116-.147.242-.286.221-.447.08-.157-.137-.324-.163-.42.232a.693.693 0 0 1-.17.268c-.03.032-.108.042-.117.012-.198-.575-.565-.387-.881-.395-.06.006-.121.01-.182.009-.013-.002-.028-.06-.032-.095-.04-.33-.043-.308-.17-.34a1.192 1.192 0 0 0-.528.016l-.004.625a.99.99 0 0 0-.516-.023c-.123.034-.126.012-.168.342-.004.035-.02.094-.032.096-.06 0-.119-.003-.178-.008-.307-.004-.669-.203-.866.383-.01.03-.086.021-.114-.01a.688.688 0 0 1-.169-.267c-.096-.392-.263-.372-.42-.239-.158.14-.295.168-.445-.072-.133-.211-.267-.075-.4-.105-.155-.034-.066.206-.11.297-.093.193-.19.262-.335.07-.145-.192-.263-.14-.4-.144-.418-.022-.781.25-1.243.043a.187.187 0 0 0-.216.063 1.094 1.094 0 0 1-.868.467c-.186.02-.175.133-.09.366.043.122-.082.208-.129.106-.097-.214-.17-.198-.287-.176-.3.066-.472.394-.79.418-.186.01-.302.13-.296.404.004.216-.073.289-.258.112a.427.427 0 0 0-.57-.089c-.09.048-.08.114-.013.25.12.241.088.383-.061.44-.143.05-.318.069-.398.198-.1.161-.172.275-.418.07-.032-.025-.114-.007-.12.027-.044.319-.315.311-.509.398-.162.072-.24.24-.421.296-.366.123-.884.032-1.089.436-.031.067-.129.14-.187.106-.293-.171-.199.128-.262.216-.045.065-.01.215.01.334.033.189-.02.271-.193.247-2.227-.31-2.526 5.648.547 2.716.263-.25.532-.785.948-.785.239-.09.49-.192.506-.53.008-.15.048-.158.19-.133.248.037.528.103.518-.263-.002-.069.093-.134.235-.035.037.025.112 0 .107-.024-.107-.434.138-.414.395-.382.089.01.199-.027.203-.112.008-.207.145-.227.255-.286.133-.075.321-.075.255-.4-.008-.039.052-.09.077-.072.208.153.257-.085.404-.022.272.112.283.002.183-.344-.06-.207.02-.372.202-.245.268.186.23-.126.318-.226.057-.064.03-.26.05-.39.016-.112.07-.14.164-.003.174.25.363.454.502.33.177-.147.335-.34.625-.168.026.016.07.007.073-.02.034-.293.25-.177.385-.236.135-.054.277-.086.422-.094.124-.012.227-.14.39.028.196.207.2-.214.356-.158.05.023.101.037.155.044.166.003.383.132.488.004.15-.174.328-.123.494-.166.478-.089.975.11 1.435-.16.035-.02.092.061.138.095.023.015.06.064.066.051.149-.317.401.035.571-.218.033-.05.116-.066.147-.023.177.252.375.132.562.19a.19.19 0 0 0 .18-.018l-.004.626a.183.183 0 0 0 .175.026c.182-.058.374.058.55-.195.03-.043.11-.03.141.024.163.261.412-.081.561.228.006.012.044-.037.067-.053.046-.034.103-.115.137-.096.459.282.962.06 1.44.149.17.036.347-.023.506.145.112.121.324-.013.492-.025a.509.509 0 0 0 .153-.052c.152-.065.185.355.368.137.153-.179.263-.05.39-.058.147-.002.292.019.43.063.141.046.342-.077.409.2.006.027.05.03.075.012.271-.208.731-.492.932-.361.157.107.325-.12.47-.39.078-.149.136-.129.165-.017.036.128.032.327.097.387.101.09.104.413.35.187.167-.151.27-.002.24.212-.05.352-.022.465.234.323.135-.075.223.147.408-.036.023-.021.09.02.088.059-.015.332.177.297.32.358.117.049.258.042.3.246.017.083.133.103.22.079.25-.072.491-.134.456.314-.001.024.078.035.11.005.123-.122.228-.072.238-.004.05.364.313.256.555.168.134-.049.603-.12.636.027.069.331.26.14.517.18.473.097.388-.3.552.116.107.272.507.393.753.485.42.157.662.385 1.223.086a.622.622 0 0 0 .172-.139zm-48.374-.193c.08-.318-.145-.362-.344-.434-.465-.174-.44-.17-.675-.683-.126-.268-.295-.562-.67-.55-.164.004-.18-.038-.191-.194-.02-.271-.052-.591-.436-.53-.074.013-.177-.073-.126-.242.013-.043-.044-.119-.067-.108-.413.196-.486-.053-.571-.334-.03-.096-.12-.206-.21-.182-.218.055-.301-.08-.422-.168-.147-.105-.256-.297-.535-.108-.032.022-.114-.017-.11-.05.03-.27-.23-.214-.263-.377-.069-.306-.189-.269-.442-.01-.153.155-.346.166-.351-.068-.008-.35-.27-.14-.416-.156-.097-.013-.245.124-.367.184-.105.053-.163.025-.117-.136.085-.294.112-.58-.1-.624-.262-.062-.541-.04-.654-.388-.01-.03-.055-.059-.078-.043-.247.167-.351-.063-.515-.125a2.008 2.008 0 0 1-.455-.225c-.124-.082-.307-.04-.36-.28-.066-.29-.33.034-.452-.101a.629.629 0 0 0-.132-.129c-.168-.105-.334-.326-.515-.277-.25.066-.414-.075-.62-.115a5.517 5.517 0 0 1-.822-.305 1.602 1.602 0 0 0-.878-.098c-.046.008-.09-.087-.137-.134-.023-.022-.055-.081-.065-.07-.251.25-.477-.13-.726.085a.128.128 0 0 1-.176-.004c-.172-.282-.427-.205-.65-.277a.297.297 0 0 0-.132-.014c-.018-.033-.05-.035-.086-.018l.041-.584a.3.3 0 0 0-.226-.038c-.239.046-.494-.085-.709.178a.136.136 0 0 1-.18-.02c-.226-.25-.51.11-.735-.187-.009-.013-.05.041-.078.06-.054.041-.114.13-.16.116a1.793 1.793 0 0 0-.923-.016 6.734 6.734 0 0 1-.9.205c-.218.016-.408.136-.661.046-.183-.067-.385.135-.573.223a.661.661 0 0 0-.154.115c-.141.13-.382-.222-.485.063-.083.235-.27.178-.409.248a3.15 3.15 0 0 1-.498.198c-.178.049-.31.27-.553.085-.023-.017-.072.008-.086.038-.163.327-.398.886-.67.918-.222.028-.213.313-.144.61.036.162-.023.191-.125.135-.12-.063-.26-.204-.36-.195-.147.015-.401-.198-.43.144-.018.23-.215.206-.363.05-.244-.263-.365-.302-.446.007-.04.163-.298.111-.28.377.002.032-.083.066-.116.042-.28-.199-.391.001-.544.105-.124.09-.21.226-.43.17-.09-.02-.19.079-.22.176-.09.285-.166.535-.58.338-.023-.01-.08.067-.069.11.05.17-.055.258-.13.244-.388-.065-.419.258-.442.53-.014.16-.136.658-.286.668-.362.01-.235.255-.357.515-.229.492.208.443-.25.578-.353.106-.17.218-.338.396-.222.18-.428.38-.615.598-.312.569.098 1.073.538 1.48.299.277.798-.09 1.162-.058.432.038.615-.088.705-.35.01-.024.017-.064.044-.061.265.036.272-.174.409-.259.269-.178.635-.252.56-.746-.023-.166.057-.207.23-.145.112.043.25.105.313.08.086-.039.35.117.213-.186-.027-.06.047-.132.11-.145.368-.084.378-.538.56-.838.088-.145.26-.144.366-.251.128-.129.207-.376.49-.262.03.011.072-.05.06-.09-.083-.301.046-.305.217-.304.136 0 .22-.134.323-.219.11-.089.235-.034.37.204.074.13.12.18.194.141.14-.072.242-.17.195-.48-.037-.247.06-.259.211-.113.192.181.33.188.437.07.187-.205.498-.063.708-.202.083-.051.137-.082.071-.308-.031-.107.1-.117.143.006.082.235.14.332.265.246a.661.661 0 0 1 .794-.053.124.124 0 0 0 .174-.042c.222-.406.606-.29.908-.454.103-.052.206-.049.263-.272.056-.228.16-.19.288-.026.06.077.052.33.165.26.098-.063.231.036.293-.202.069-.273.196-.27.351-.16.154.11.29.107.322-.295a.691.691 0 0 1 .115-.287c.022-.036.09-.055.102-.027.235.548.522.342.802.33.052-.008.104-.012.157-.013.011 0 .024.059.028.094.035.33.037.303.14.342.14.04.29.041.43.002l.044-.624a.953.953 0 0 0 .45.06c.112-.015.11.007.192-.314.009-.034.03-.09.042-.09.055.009.108.02.161.035.288.048.556.292.873-.21.016-.026.084.003.102.041.05.093.079.195.082.3-.02.403.122.424.297.337.177-.092.306-.065.346.213.035.244.188.164.284.24.11.086.131-.167.204-.236.152-.146.265-.17.299.066.034.23.143.242.246.306.302.205.717.137.92.57a.141.141 0 0 0 .18.064.768.768 0 0 1 .84.143c.127.101.194.01.294-.217.052-.12.19-.094.15.01-.082.221-.028.26.056.321.219.154.558.032.74.268.106.133.252.142.462-.032.165-.138.267-.122.222.124-.056.306.047.422.189.51.077.046.125 0 .205-.127.144-.228.277-.278.393-.184.108.09.198.224.339.234.174.015.305.03.214.335-.011.04.033.103.064.092.299-.103.383.148.518.284.105.122.278.135.375.281.203.301.203.783.588.88.065.014.142.09.115.15-.136.305.135.155.224.197.066.027.206-.03.316-.066.176-.057.259-.012.236.156-.073.5.302.59.57.783.137.092.14.305.41.281.028-.001.034.038.044.063.18.477.88.438 1.311.538a.418.418 0 0 0 .532-.172c.191-.203.35-.436.467-.688.299-.74-.578-.88-.472-1.287zm-14.535 5.273c.01.003.01.017 0 .025-.205.18-.093.335-.063.513.01.176-.022.353-.091.516-.004.016.008.042-.014.047-.118.025-.148.066-.145.112.011.013.016.03.015.047l-.001.004c.03.07.092.147.026.203.17.094.057.154.038.219-.055.157-.123.31-.202.457-.065.135-.238.231-.196.393.043.176-.189.22-.052.44a.308.308 0 0 1-.139-.018c-.388-.168-.429-.167-.327.052.019.042.052.093.043.121-.09.168-.158.346-.2.532-.305-.16-.013.286-.3.136-.015-.008-.018.041-.018.07.008.144-.075.22-.228.18-.147-.038-.14.035-.091.176.035.105-.026.08-.085.085-.218.03-.483-.077-.536.207-.027.133-.2.121-.337.09-.07-.013-.093-.003-.08.094.022.188-.042.203-.178.082-.165-.15-.23-.11-.273.085-.013.051-.03.111-.063.12-.104.032-.208.038-.244.244-.006.037-.048.039-.077.025a.99.99 0 0 0-.487-.155c-.063.01-.125.083-.207-.068-.02-.038-.055-.008-.089.012l-.03-.222-.013.005.018.139a.083.083 0 0 0-.105.027c-.089.126-.187.1-.288-.001-.06-.06-.148-.13-.187-.057-.078.143-.129.094-.188-.038-.017-.04-.065.01-.1.034a4.662 4.662 0 0 1-.387.212c-.107.048-.143-.115-.156-.307-.008-.091-.02-.1-.072-.044-.105.107-.225.2-.356.274-.032.02-.084-.004-.08-.04.029-.299-.139-.26-.095-.55a.517.517 0 0 0-.025-.206.435.435 0 0 0-.03-.11c-.073.112-.14.171-.186.092l-.053.058a.355.355 0 0 1-.155.17l-.077.085c-.038-.15-.16.12-.241.18-.118.088-.19.019-.19-.063.005-.293-.184-.217-.34-.22a.3.3 0 0 1-.04.098c-.128.116-.205.011-.186-.065a.186.186 0 0 0 .002-.105.41.41 0 0 1-.057-.04c-.061-.003-.146.031-.17-.029-.036-.1-.133-.137-.212-.193-.035-.026-.105-.014-.143-.04-.066-.046-.065-.151-.074-.245-.005-.055-.152 0-.156-.081a.179.179 0 0 0-.018.003c-.035.01-.062-.048-.038-.086a.216.216 0 0 0 .01-.024.12.12 0 0 1-.058-.019c-.051-.052-.15-.096-.105-.192.074-.156-.132-.074-.124-.17.011-.087-.048-.138-.085-.2l-.006-.013a1.63 1.63 0 0 0-.08-.177.217.217 0 0 1 .028-.259.293.293 0 0 0 .066-.204c-.074-.034-.15-.07-.156-.141-.01-.004-.017-.009-.029-.012a.326.326 0 0 1-.095-.037c-.248-.005-.07-.224-.27-.26.168-.196-.172-.255-.095-.428a.165.165 0 0 0 .014-.06.199.199 0 0 1-.079-.125.264.264 0 0 0-.021-.017c-.095-.053-.125-.166.126-.256.012-.004.02-.009.03-.013.01-.028.009-.053-.017-.06-.08-.023-.098-.057-.1-.095a.214.214 0 0 1-.059-.165.22.22 0 0 0-.045-.02c-.038-.012-.03-.061.003-.086l.007-.005a.772.772 0 0 1-.055-.101c-.027-.064.058-.124-.072-.194a.092.092 0 0 1-.048-.092.093.093 0 0 1 .068-.079c.081-.02.109-.05.12-.082-.012 0-.018-.003-.033-.003l.01-.08h.04c.009-.04.037-.073.153-.087-.138-.1.004-.187-.08-.276a.164.164 0 0 1-.024-.197c.086-.263.195-.518.326-.762.024-.042.056-.076-.02-.16-.142-.157-.113-.157.152-.163.058-.002.114-.033.09-.068-.104-.163-.016-.236.15-.257.042-.005.09-.023.072-.052-.109-.188.074-.218.117-.322.04-.11.086-.216.139-.319a.1.1 0 0 1 .11-.004c.107.067.097.1.09.147l.004.01a.345.345 0 0 1 .172-.092 1.654 1.654 0 0 0-.133-.393c-.04-.076.074-.09.102-.146.034-.07.13.022.23.09.023.016.042.026.061.037a.338.338 0 0 1-.026-.206c.056-.094.158-.16.325-.061.032.022.06.049.084.078a.188.188 0 0 0 .006-.041.756.756 0 0 0-.103-.118c-.19-.185-.194-.185-.117-.238.071-.046.145-.088.222-.125.228.063.216-.26.346-.428.137-.184.19-.223.421-.162.057.015.135.04.148-.016.051-.186.195-.138.3-.175.06-.024.142.033.167-.12.008-.046.082-.046.118-.004.145.169.25.08.351.05a.508.508 0 0 1 .504.015c.12.055.242.143.368-.021.007-.01.015-.03.02-.026.154.084.31-.028.465-.019.085.002.136.139.237.079.1-.058.159.087.27.026.099-.051.174.081.272.034.098-.05.127.034.18.084.06.056.106.165.24.049.056-.05.106.014.148.05.14.116.352.11.39.391.007.073.122-.04.137.046.052-.02.09-.023.113.026l.007.016a.996.996 0 0 1 .096-.069.05.05 0 0 1 .065.016c.036.049.089.046.186-.026.14-.1.18-.04.122.129-.048.143-.042.219.066.173.148-.064.207.034.196.133-.013.14.07.119.151.124a.38.38 0 0 1 .28.153.273.273 0 0 0 .2.118c.11.019.165.137.148.292-.017.133.099.187.165.27.03.042.096.06.124.105.066.098.071.231.258.248-.072.134.307.015.117.237-.095.105.077.146-.024.29a.108.108 0 0 0-.023.065c.036.071.092.13.162.167.085.044.15.156.027.3-.052.062-.053.163.015.179.218.059.038.257.252.331.066.026.056.13-.008.18.142.023.154.09.155.154 0 .089-.077.186.105.25zm-7.26 4.313a.834.834 0 0 1 .151-.385l.022-.037c-.025-.073-.128.033-.231.108-.043.03-.067-.029-.129.096-.057.117-.09.239-.025.248.035.004.115-.068.126-.04.018.052.05.043.087.01zm56.55-4.647c.035.011.03.052.01.08a.848.848 0 0 0-.223.455c.004.062.07.132-.09.193-.04.014-.013.052.004.088h-.453a.153.153 0 0 1-.015.013l.387.002a.083.083 0 0 0 .013.108c.113.104.073.197-.04.284-.068.052-.149.129-.082.177.132.097.076.14-.063.18-.04.013.001.067.02.105.058.131.113.269.16.411.032.112-.133.126-.326.114-.091-.005-.101.005-.053.065.093.118.168.25.224.389.016.034-.015.083-.05.075-.293-.07-.277.101-.558.02a.52.52 0 0 0-.207-.004c-.184.01-.195.032-.05.208l.275.328c-.154.017.098.173.147.263.071.128-.007.19-.088.179-.292-.045-.238.157-.263.311-.03.235-.221.33-.421.379-.121.033-.24.028-.256.193a.452.452 0 0 1-.068.189c-.033.056-.114.046-.085.185.006.037-.055.055-.09.027-.144-.121-.16-.007-.236-.004-.124.003-.147.207-.315.124-.023.213-.191.16-.296.219-.07.035-.153.024-.252-.064-.19-.168-.293-.112-.37.07-.05.13-.107.195-.217-.014-.022-.04-.205.072-.225.143-.028.126-.054.19-.143.053-.053-.084-.12-.03-.181.077-.108.178-.264.2-.405.022-.039-.049-.106-.089-.129-.042-.103.212-.225-.046-.334.168-.019.035-.07.02-.091-.018a.328.328 0 0 0-.212-.18.14.14 0 0 0-.063.068.1.1 0 0 1-.096.049.102.102 0 0 1-.086-.066.17.17 0 0 0-.071-.112.319.319 0 0 0-.06.151l-.078-.024a.3.3 0 0 0 .013-.156c-.034-.013-.064-.047-.078-.147a.143.143 0 0 1-.167.058.199.199 0 0 1-.113.014c-.005.003-.01.001-.015.006a.182.182 0 0 1-.212.018 3.9 3.9 0 0 1-.827-.38.125.125 0 0 0-.089-.038.123.123 0 0 0-.089.038c-.179.123-.18.09-.174-.18.001-.06-.03-.121-.07-.105-.186.077-.263-.027-.272-.206-.002-.043-.017-.096-.051-.084-.212.066-.227-.132-.334-.2a3.596 3.596 0 0 1-.315-.232.1.1 0 0 1 .014-.115c.089-.09.12-.07.167-.051.05.017.135-.065.18-.145.036-.06.094-.122-.016-.087a.896.896 0 0 1-.328.03 1.158 1.158 0 0 0-.313.022c-.084.018-.07-.103-.121-.146-.064-.054.05-.125.14-.206.117-.106.172-.185-.014-.154-.193.032-.216-.037-.074-.174a.27.27 0 0 0 .081-.114c0-.027-.034-.044-.07-.055a.777.777 0 0 0-.14.07c-.23.134-.23.137-.26.049-.021-.07-.04-.14-.064-.246.13-.202-.193-.269-.316-.424-.139-.166-.17-.22-.054-.413.028-.047.071-.111.02-.134-.17-.08-.077-.198-.1-.297-.013-.058.057-.12-.086-.168-.044-.015-.029-.08.02-.104a.29.29 0 0 0 .061-.046c-.048-.063.022-.14.062-.21l-.01-.046a.452.452 0 0 1-.007-.27.899.899 0 0 1-.015-.234c.02-.16.053-.319.1-.474a.368.368 0 0 1 .042-.097.568.568 0 0 1-.01-.164c.007-.08.15-.113.101-.215-.042-.098.09-.145.047-.26-.039-.103.105-.166.071-.268a.11.11 0 0 1-.005-.056 1.06 1.06 0 0 0-.026-.147c-.031-.1-.002-.232.133-.24a.381.381 0 0 0 .062-.01c-.009-.046.035-.083.067-.116-.013-.035-.034-.072-.047-.106-.031-.075-.045-.13.018-.16.205-.092.198-.087.21-.314.003-.04.042-.064.086-.08.095-.034.193-.06.278-.095a.059.059 0 0 1 .025-.065c.06-.03.07-.084.02-.193-.071-.157.004-.19.166-.107.013.007.024.01.036.015.017-.044.053-.073.155-.035a.123.123 0 0 0 0-.028c-.032-.164.082-.215.18-.19h.007c.003-.01.001-.024.007-.03.037-.037-.031-.205.146-.088l.005-.017a.497.497 0 0 1 .106-.164c-.001-.085.06-.11.115-.142.052-.03.104-.055.156-.083a.358.358 0 0 0 .028-.042.228.228 0 0 1 .268-.11c.13-.056.268-.1.4-.152.145-.048.293-.053.404-.208l.008-.007.004-.007h.002a.149.149 0 0 1 .097-.055c.03-.063.063-.125.155.006.063.096.125.014.207.048.08-.146.23 0 .306-.183.027-.063.129-.04.17.033.07.118.09.053.148 0 .06-.057.154-.023.215.045a.248.248 0 0 0 .166.085.195.195 0 0 1 .107-.012l.038-.008a.429.429 0 0 0 .09-.052l.002-.003c.045-.151.105-.14.168-.13.083.014.162.106.25-.063.005-.01.018-.006.023.004.134.24.301.13.469.134.165.024.324.08.469.163.014.005.04-.004.042.019.005.081.022.122.047.14l.01.006c.078.039.214-.108.273-.003.112-.155.153-.036.212-.008.142.07.28.149.414.234.12.084.196.264.357.24.174-.02.2.203.432.083a.299.299 0 0 1-.032.134c-.207.371-.214.418.013.34.043-.014.098-.042.125-.03.158.111.333.195.519.246-.19.287.278.055.1.328-.01.013.04.022.069.025a.167.167 0 0 1 .16.251c-.053.143.024.145.174.11.113-.026.08.033.078.096-.004.231-.143.488.142.578.126.047.11.216.055.35-.024.07-.019.095.078.097.187.004.192.072.05.192-.17.145-.135.215.055.286.05.02.108.045.114.08.022.11.01.212.205.274zm-1.556 3.149a.753.753 0 0 0-.16-.077c-.03-.007-.029.025-.052.045-.099.005.005.13.068.248.025.046-.037.063.078.14.109.073.225.121.243.059.008-.035-.052-.123-.022-.13.134-.028-.095-.191-.155-.285zM83.644 16.88c-.118-.312.028-.511-.349-.608.47-1.127-1.244-1.189-1.813-.627-.254.25-.29.592-.604.767-.351.196-.859-.176-1.022.404-.043.153-.084.148-.223.08-.242-.12-.516-.258-.581.131-.013.074-.123.118-.25-.024-.032-.036-.116-.03-.114-.002.025.48-.217.405-.48.317-.089-.03-.21-.012-.228.077-.04.22-.187.207-.309.255-.147.06-.346.03-.312.391.005.043-.063.088-.087.065-.203-.197-.28.046-.425-.035-.278-.151-.3-.03-.215.356.05.23-.036.399-.223.242-.276-.231-.244.12-.335.223-.06.066-.03.28-.049.42-.015.121-.069.148-.169-.005-.183-.28-.388-.511-.532-.378-.181.165-.33.376-.651.196-.029-.016-.074-.005-.076.024-.016.312-.245.211-.383.284-.135.07-.281.118-.433.139-.132.02-.214.18-.413.021-.242-.193-.174.264-.346.227a.538.538 0 0 0-.172-.023c-.178.02-.43-.06-.512.098-.114.22-.312.205-.475.288-.455.232-1.047.159-1.405.615-.027.033-.114-.03-.173-.049-.03-.008-.086-.045-.087-.03-.03.374-.412.113-.47.44-.01.065-.082.114-.13.082-.277-.184-.418.015-.622.032a.208.208 0 0 0-.066.02c-.013-.015-.023-.032-.036-.047a.086.086 0 0 0-.12-.01l-.221-.49a.19.19 0 0 0-.18.053c-.15.142-.391.115-.437.446-.007.056-.092.077-.147.042-.284-.173-.342.287-.642.062-.011-.01-.02.057-.034.084-.026.056-.036.164-.079.162-.578-.034-.915.458-1.39.646-.17.067-.29.226-.531.165-.173-.043-.28.198-.412.319a.533.533 0 0 0-.097.144c-.086.153-.383-.2-.399.109-.013.255-.187.21-.29.296a1.33 1.33 0 0 1-.39.233c-.146.054-.222.293-.467.098-.023-.018-.06.009-.068.04-.077.36-.224.926-.467.953-.196.02-.159.326-.07.648.048.177-.007.2-.108.132-.117-.079-.258-.243-.348-.243-.136 0-.379-.256-.388.104-.006.243-.19.198-.33.005-.23-.318-.338-.382-.408-.074-.037.163-.27.06-.255.343 0 .033-.077.053-.106.021-.248-.263-.357-.094-.5-.024-.117.06-.204.178-.396.063-.079-.047-.172.032-.21.12-.106.255-.21.485-.555.147-.019-.018-.078.042-.073.089.022.19-.083.243-.147.204-.336-.21-.412.087-.484.348-.04.149-.248.604-.392.535-.324-.157-.27.135-.447.328-.336.366.057.534-.39.423-.192-.047-.387-.139-.425.192-.03.26-.813.18-1.036.395a2.062 2.062 0 0 0-.153 1.91c.023.071.06.138.11.195a.643.643 0 0 0 .57.093c.395-.062 1.183.2 1.455-.072.02-.019.046-.055.07-.04.238.166.346-.04.517-.057.35-.033.752.016.867-.51.037-.177.132-.184.289-.053.098.083.219.196.292.19.1-.012.327.238.284-.126-.009-.073.09-.123.16-.116.428.043.55-.474.809-.733.126-.125.304-.09.434-.188.158-.115.274-.364.563-.19.03.018.084-.04.077-.083-.053-.342.078-.33.258-.308.143.017.244-.119.358-.197.123-.082.254-.008.385.258.073.148.12.204.203.164.153-.075.27-.18.223-.52-.038-.271.063-.278.227-.114.21.208.36.21.47.075.19-.234.54-.083.757-.25.084-.067.138-.107.044-.348-.045-.114.092-.138.152-.008.115.249.188.349.315.241a.774.774 0 0 1 .854-.177.138.138 0 0 0 .18-.078c.166-.466.583-.45.864-.695.093-.08.206-.1.195-.357-.01-.26.102-.25.285-.116.087.063.16.332.253.221.081-.095.255-.034.236-.3-.022-.302.098-.35.295-.293.194.057.332.002.203-.42a.79.79 0 0 1-.004-.336c.007-.044.064-.088.087-.064.455.473.644.127.903 0 .046-.03.095-.057.144-.08.011-.004.052.048.072.08.19.312.182.29.299.273.156-.033.3-.11.416-.22l-.282-.628a.87.87 0 0 0 .44-.166c.09-.077.101-.055-.006-.404-.011-.037-.023-.102-.013-.108.05-.021.102-.04.155-.054.267-.11.651-.023.598-.677-.003-.033.068-.048.106-.023a.792.792 0 0 1 .248.225c.231.377.364.31.45.127.088-.186.203-.244.415-.028.187.19.256.02.381.023.145.002-.008-.23.002-.337.02-.226.088-.317.275-.136.187.178.276.106.398.089.369-.048.633-.371 1.092-.186a.137.137 0 0 0 .178-.084.775.775 0 0 1 .699-.523c.164-.024.138-.145.027-.395-.057-.131.05-.218.107-.11.118.232.184.217.289.198.27-.052.388-.413.689-.401.174.007.272-.108.255-.402-.014-.231.057-.303.237-.094.222.26.38.241.537.176.084-.036.073-.107.01-.26-.112-.275-.081-.422.062-.46.134-.034.303-.019.385-.137.103-.15.18-.256.401.01.03.034.108.032.114-.003.06-.331.324-.253.515-.295.16-.033.25-.19.428-.201.366-.024.833.228 1.085-.12.04-.058.145-.099.194-.044.243.272.206-.063.281-.13.054-.051.049-.216.052-.345.005-.204.073-.27.23-.181.471.262.7-.071.957-.312a9.487 9.487 0 0 0 1.182-1.285.376.376 0 0 0 .1-.228.742.742 0 0 0-.082-.216zM57.83 15.456c-.032.038-.13-.017-.197-.03-.033-.004-.097-.035-.098-.02-.042.39-.475.167-.547.511-.013.068-.096.127-.15.1-.314-.157-.478.065-.713.107a.258.258 0 0 0-.185.123l-.311-.614a.258.258 0 0 0-.208.077c-.173.164-.45.166-.507.512-.01.059-.107.09-.17.061-.32-.144-.396.337-.734.14-.014-.008-.026.063-.042.092-.03.061-.044.173-.093.177-.66.034-1.056.581-1.603.833-.196.09-.336.267-.61.234-.197-.024-.324.238-.478.378a.656.656 0 0 0-.113.16c-.102.169-.435-.161-.459.16-.02.265-.218.24-.337.34a1.833 1.833 0 0 1-.451.287c-.167.074-.26.33-.536.158-.026-.016-.07.016-.079.05-.094.38-.274.981-.553 1.04-.224.043-.187.354-.092.676.052.176-.012.208-.125.15-.133-.068-.291-.22-.394-.21-.156.016-.428-.22-.446.154-.012.251-.22.226-.377.045-.259-.301-.38-.354-.466-.028-.045.172-.31.093-.299.384.001.035-.088.065-.121.035-.279-.242-.407-.055-.572.035-.134.075-.236.208-.454.112-.089-.04-.197.054-.241.148-.128.277-.251.527-.639.22-.021-.017-.09.052-.086.1.022.193-.099.26-.171.228-.38-.177-.473.139-.56.417-.05.158-.297.654-.46.6-.367-.124-.31.17-.517.392-.391.417.055.544-.455.483-.218-.026-.44-.097-.49.25a.281.281 0 0 1-.316.204c-.624-.11-1.217.775-1.33 1.273-.379 1.658 4.066 1.377 4.355.21.047-.187.155-.206.332-.09.11.075.246.177.33.161.115-.024.37.207.327-.163-.008-.074.107-.138.187-.14.488-.006.637-.555.939-.853.146-.144.349-.128.5-.245.183-.138.32-.41.647-.264.034.015.097-.05.09-.095-.054-.347.096-.35.301-.348.163 0 .281-.153.414-.247.142-.1.29-.039.435.22.08.145.133.196.229.145a.468.468 0 0 0 .265-.562c-.038-.277.078-.296.262-.146.235.19.408.173.536.02.222-.263.619-.149.871-.348.097-.078.16-.126.057-.364-.05-.112.108-.153.174-.026.126.243.208.337.355.211a1.031 1.031 0 0 1 .98-.286.183.183 0 0 0 .209-.1c.198-.502.675-.536 1-.822.109-.095.239-.127.231-.392-.008-.267.122-.27.328-.154.098.055.176.324.286.198.094-.107.291-.065.275-.338-.02-.309.12-.373.343-.337.22.035.38-.039.24-.46a.739.739 0 0 1 .002-.345c.009-.046.076-.098.101-.076.512.433.734.053 1.034-.108.053-.037.108-.07.166-.1.013-.005.058.043.08.075.213.299.203.276.337.245.18-.053.344-.148.48-.277l-.311-.614a1.2 1.2 0 0 0 .508-.224c.104-.09.116-.07 0-.417-.012-.036-.025-.102-.013-.11.058-.028.118-.053.179-.074.307-.146.745-.102.697-.77-.003-.034.078-.058.12-.037a.739.739 0 0 1 .281.203c.257.36.41.276.512.077.104-.202.237-.276.475-.079.21.175.293-.01.436-.022.166-.015-.005-.236.009-.347.027-.236.107-.338.317-.174.21.162.313.076.453.045.423-.094.732-.46 1.253-.323a.183.183 0 0 0 .205-.108 1.032 1.032 0 0 1 .81-.623c.188-.045.16-.166.039-.411-.064-.129.062-.232.124-.126.13.224.206.201.326.169.31-.086.452-.473.796-.497.2-.013.314-.143.3-.445-.012-.237.072-.32.273-.126a.469.469 0 0 0 .61.118c.098-.046.087-.12.018-.27-.124-.27-.086-.425.079-.481.154-.051.347-.056.443-.188.12-.167.212-.286.46-.038.031.032.121.02.13-.016.074-.35.374-.3.594-.367.183-.053.29-.226.494-.259.418-.068.948.136 1.243-.254.047-.064.167-.119.222-.068.273.252.237-.089.325-.168.062-.058.06-.228.066-.361.01-.212.088-.288.267-.215.501.201 1.643-.641 1.968-.977.229-.237 1.246-2.112.731-2.293a.285.285 0 0 0-.283.059c-.36-.492-1.48-.812-1.827-.107a.28.28 0 0 1-.352.135c-.31-.164-.383.057-.49.248-.252.448-.266.41-.834.48-.3.036-.62.107-.739.477-.052.164-.1.163-.257.109-.275-.094-.585-.204-.667.206-.016.078-.143.136-.285.005-.036-.034-.132-.017-.131.01.02.494-.256.446-.554.386-.102-.02-.241.012-.263.106-.05.233-.218.237-.358.3-.17.08-.397.074-.365.442.004.044-.073.098-.1.077-.229-.179-.321.08-.487.015-.314-.123-.343.005-.252.393.053.232-.05.416-.26.277-.311-.206-.282.152-.387.27-.07.076-.04.293-.064.44-.02.126-.082.16-.194.014-.204-.267-.433-.481-.601-.326-.21.192-.386.428-.748.28-.033-.013-.085.004-.087.034-.025.324-.286.247-.444.339a1.834 1.834 0 0 1-.498.195c-.152.036-.248.212-.474.071-.273-.17-.203.293-.4.276a.658.658 0 0 0-.196-.003c-.204.041-.49-.01-.587.162-.135.241-.361.25-.549.355-.526.293-1.201.289-1.619.802zm-.26-9.921c-.098-2.51-1.663.09-2.225-.194-.32-.16-.407.065-.528.261-.283.459-.296.418-.897.507a.85.85 0 0 0-.793.508c-.059.168-.11.169-.274.119-.29-.087-.615-.185-.71.236-.017.08-.152.144-.3.018-.038-.033-.14-.011-.139.017.014.5-.275.463-.59.416-.108-.016-.256.024-.28.12-.056.238-.231.253-.38.325-.178.09-.419.098-.385.47.005.044-.077.103-.106.084-.241-.168-.338.1-.513.043-.333-.106-.364.026-.266.413.058.232-.047.427-.27.3-.33-.188-.295.174-.404.3-.072.083-.038.301-.061.452-.019.13-.084.168-.204.028-.218-.256-.464-.457-.639-.287-.22.208-.396.465-.782.344-.034-.01-.09.011-.09.042-.018.331-.295.275-.46.382a2.098 2.098 0 0 1-.519.24c-.16.049-.253.239-.496.117-.293-.146-.203.318-.41.32a.725.725 0 0 0-.207.016c-.213.062-.517.038-.612.223-.134.256-.37.29-.562.418-.537.358-1.253.425-1.66 1-.032.041-.138-.002-.21-.006-.035 0-.104-.024-.104-.008-.02.4-.488.228-.543.586-.008.07-.092.14-.15.12-.34-.12-.5.126-.741.202a.295.295 0 0 0-.185.15l-.372-.579a.297.297 0 0 0-.214.107c-.169.192-.46.233-.495.591-.006.062-.105.108-.173.087-.351-.102-.39.399-.762.252-.015-.007-.021.067-.035.099-.027.066-.032.182-.083.193-.691.137-1.06.75-1.606 1.099-.197.123-.326.326-.617.339-.209.01-.315.295-.462.462a.725.725 0 0 0-.1.183c-.088.189-.473-.085-.462.244.01.271-.201.281-.314.405a2.117 2.117 0 0 1-.439.37c-.167.104-.23.381-.54.261-.028-.011-.07.03-.075.066-.052.402-.161 1.042-.444 1.153-.227.087-.148.392-.006.698.077.166.015.21-.11.174-.146-.042-.33-.163-.435-.132-.16.049-.475-.133-.44.246.023.255-.197.272-.385.122-.31-.249-.445-.277-.488.068-.021.182-.308.157-.253.448.005.034-.082.083-.12.061-.325-.184-.43.032-.588.158-.127.104-.213.26-.452.212-.099-.02-.196.098-.227.202-.089.307-.175.584-.625.364-.025-.011-.086.073-.073.12.054.19-.06.285-.14.268-.422-.088-.466.25-.509.548-.024.17-.192.724-.369.708-.4-.035-.29.246-.462.517-.326.511.155.53-.379.593-.228.028-.469.013-.455.37a.314.314 0 0 1-.284.284 1.22 1.22 0 0 0-.977 1.293c.11 1.071 1.091.712 1.831.919a.763.763 0 0 0 .96-.277c.02-.028.042-.075.073-.068.3.076.384-.177.576-.262.39-.17.854-.272.894-.857.013-.196.12-.24.32-.163.126.048.282.119.364.085.113-.05.411.123.302-.235-.022-.072.084-.16.165-.179.493-.113.549-.69.806-1.05.125-.176.334-.202.468-.35.163-.176.261-.474.616-.396.038.008.091-.07.077-.113-.11-.334.043-.369.253-.408.167-.031.264-.206.386-.326.13-.127.29-.095.477.136.104.128.165.17.255.101a.49.49 0 0 0 .187-.613c-.08-.27.036-.311.246-.197.266.145.442.099.551-.077.19-.303.612-.26.842-.504.088-.095.146-.155.009-.375-.066-.104.09-.172.174-.057.161.222.257.3.39.15a1.117 1.117 0 0 1 .967-.448.197.197 0 0 0 .2-.136c.14-.537.626-.646.928-.981.1-.111.23-.164.193-.428-.038-.267.095-.29.32-.205.105.04.214.299.313.156.085-.123.291-.11.246-.38-.051-.307.085-.392.32-.387.23.004.387-.092.201-.495a.724.724 0 0 1-.03-.348c.003-.048.067-.11.096-.091.568.364.759-.05 1.055-.25.052-.044.107-.084.163-.122.013-.007.064.037.09.065.245.273.233.252.368.204.18-.076.341-.192.47-.34l-.366-.57.005-.013c.184-.058.353-.156.495-.287.102-.102.116-.082-.03-.418-.016-.036-.034-.1-.022-.109.058-.036.118-.068.18-.097.308-.183.764-.189.67-.859-.006-.034.077-.067.122-.05a.72.72 0 0 1 .304.171c.29.335.443.233.536.023.096-.215.23-.303.488-.128.228.154.303-.04.45-.067.17-.032-.019-.238-.01-.352.014-.24.091-.353.318-.208.225.142.328.045.471.001.435-.132.739-.528 1.284-.437a.2.2 0 0 0 .207-.127 1.114 1.114 0 0 1 .816-.691c.194-.06.161-.18.027-.419-.07-.125.057-.239.125-.136.142.216.22.187.344.146.318-.111.455-.512.813-.557.207-.026.323-.165.302-.469-.017-.239.07-.328.282-.144a.489.489 0 0 0 .636.081c.1-.054.087-.126.014-.275-.133-.265-.094-.424.077-.49.16-.06.361-.074.46-.212.125-.175.22-.3.479-.062.033.031.127.014.135-.023.077-.357.388-.325.617-.398.192-.061.305-.24.517-.28.437-.085.985.1 1.295-.302.05-.066.176-.124.233-.074.281.248.248-.096.34-.178.066-.06.067-.231.075-.366.015-.214.099-.294.283-.224.55.203.837-.177 1.157-.46.32-.284.85-.41 1.095-.749a3.37 3.37 0 0 0 .319-1.825zM13.368 27.647l.026.026c.33.303 2.031.543 2.172-.018.008-.023.01-.062.038-.056.273.057.256-.15.386-.222.264-.145.607-.235.442-.718-.056-.163.016-.2.205-.14.118.037.268.093.325.065.076-.041.378.099.17-.195-.042-.059.014-.133.074-.149.365-.097.218-.575.307-.878.043-.147.201-.173.263-.296.076-.146.059-.396.373-.33.033.006.05-.06.025-.096-.198-.279-.084-.308.072-.342.125-.028.145-.175.204-.277.064-.108.203-.082.428.111.125.108.188.143.237.085.09-.11.142-.232-.045-.514-.15-.226-.069-.26.137-.163.262.123.387.083.419-.064.055-.257.406-.22.512-.426.04-.08.067-.13-.112-.317-.085-.088.017-.147.122-.048.198.188.3.257.36.13a.57.57 0 0 1 .632-.372.1.1 0 0 0 .087-.027.1.1 0 0 0 .03-.087c-.054-.453.292-.549.431-.83a.286.286 0 0 0 .023-.363c-.11-.228-.012-.247.193-.17.096.035.261.258.296.138.03-.104.198-.09.08-.324-.135-.265-.053-.337.132-.331.182.005.276-.076.01-.425a.856.856 0 0 1-.128-.3c-.01-.042.022-.094.05-.077.56.324.589-.027.761-.199a.877.877 0 0 1 .092-.104c.008-.005.06.033.09.058.273.241.257.223.348.183a.612.612 0 0 0 .268-.288l-.462-.511a.624.624 0 0 0 .317-.24c.05-.088.066-.07-.146-.366-.022-.032-.055-.088-.048-.096a.913.913 0 0 1 .113-.081c.19-.156.544-.151.28-.741-.015-.03.041-.058.081-.043a.849.849 0 0 1 .287.157c.321.3.411.212.426.03.014-.185.094-.26.345-.1.222.14.225-.028.332-.048.125-.024-.081-.21-.106-.31-.056-.212-.026-.309.19-.176a.288.288 0 0 0 .366.012c.296-.112.428-.448.876-.351a.1.1 0 0 0 .09-.022.103.103 0 0 0 .036-.085.579.579 0 0 1 .44-.594c.132-.048.074-.157-.093-.374-.088-.114-.019-.21.06-.117.169.198.222.175.306.143.218-.086.218-.44.48-.47.151-.019.204-.14.109-.413-.076-.215-.033-.292.177-.121.262.213.39.173.51.094.063-.043.035-.11-.06-.245-.17-.243-.18-.385-.066-.438.108-.049.258-.055.3-.177.05-.153.09-.263.349-.039.033.03.1.018.098-.016-.032-.32.216-.278.37-.34.13-.05.172-.205.323-.235.314-.06.776.134.912-.221.022-.059.103-.108.157-.06.273.235.164-.08.214-.151.034-.054-.007-.21-.032-.331-.04-.194.005-.263.162-.191.787.36 1.478-1.677 1.657-2.188a1.333 1.333 0 0 0-.135-1.298c-.362-.418-1.629-.119-1.753.42a.172.172 0 0 1-.098.125.174.174 0 0 1-.158-.006c-.28-.159-.295.047-.342.224-.11.413-.128.377-.57.434-.234.03-.48.091-.49.437-.005.152-.043.152-.181.102-.241-.086-.517-.186-.49.193.006.072-.082.127-.227.007-.037-.031-.11-.015-.103.01.13.456-.101.412-.357.36-.087-.018-.19.016-.185.103.016.216-.117.223-.213.285-.116.077-.3.077-.182.415.014.04-.034.092-.061.073-.229-.159-.237.082-.387.025-.285-.104-.276.014-.102.366.104.212.068.38-.136.261-.303-.177-.184.15-.235.262-.035.072.047.27.069.405.018.116-.022.15-.15.02-.236-.235-.48-.421-.571-.272-.116.184-.19.405-.523.287-.03-.01-.068.007-.06.035.07.294-.157.241-.258.334a1.03 1.03 0 0 1-.34.206c-.11.043-.136.207-.358.095-.27-.137-.076.277-.239.274a.475.475 0 0 0-.159.01c-.152.05-.397.023-.42.188-.033.23-.21.255-.328.365-.325.308-.876.355-1.037.858-.013.037-.11-.003-.167-.007-.028 0-.09-.023-.085-.008.097.352-.323.196-.265.511.012.061-.034.123-.086.104-.304-.108-.36.107-.534.169a.151.151 0 0 0-.106.127l-.462-.51a.154.154 0 0 0-.139.094c-.08.167-.3.203-.224.517.013.054-.053.094-.113.075-.309-.088-.197.347-.539.216-.014-.005.002.058 0 .086-.003.058.027.158-.011.168-.52.113-.625.658-.967.954-.123.107-.167.282-.399.293-.167.007-.167.254-.233.402a.47.47 0 0 0-.026.157c-.014.163-.408-.07-.3.213.09.233-.078.242-.132.35-.059.12-.141.23-.242.32-.102.09-.074.324-.36.224-.027-.01-.049.026-.041.057.082.346.192.893-.001.99-.158.077.002.336.214.594.115.14.079.178-.035.148-.132-.035-.32-.136-.398-.11-.114.042-.43-.11-.283.21.1.217-.072.234-.273.11-.332-.207-.45-.228-.375.066.041.154-.2.138-.063.382.016.03-.04.072-.08.053-.324-.15-.341.033-.43.141-.072.09-.093.222-.306.184-.087-.015-.128.087-.12.175.027.26.047.495-.394.32-.024-.01-.047.063-.021.102.106.157.043.239-.028.227-.377-.066-.304.218-.242.467.034.141.076.604-.072.597-.341-.019-.157.212-.21.44-.099.433.305.435-.115.501-.18.028-.385.021-.255.315a.171.171 0 0 1-.142.24c-.73.09-.418 1.161-.046 1.538zm74.31-1.931c-.118-.23-.206-.263-.332-.499-.156-.296-.297-.403-.458-.71-.194-.367-.315-.435-.395-.303-.008.012-.016.038-.03.016-.124-.222-.157-.064-.236-.098-.16-.073-.356-.234-.36.216 0 .152-.043.131-.13-.035a1.005 1.005 0 0 0-.157-.258c-.046-.018-.18-.312-.121.035.012.07-.03.088-.064.061-.207-.16-.208.281-.3.444-.046.08-.134-.003-.183.05-.06.063-.084.26-.242.019-.017-.025-.035.012-.026.055.068.329.005.28-.083.21-.07-.055-.1.042-.144.082-.048.04-.12-.063-.217-.343-.054-.156-.084-.22-.119-.207-.063.027-.104.093-.035.416.055.26.008.238-.092.043-.128-.248-.2-.29-.234-.197-.058.162-.246-.07-.326.024-.03.038-.05.06.029.306.038.116-.024.1-.072-.034-.09-.259-.14-.37-.184-.305-.082.113-.185.165-.382-.066-.038-.045-.073-.037-.075.022-.008.383-.211.256-.306.406-.032.049-.083.036-.037.274.046.24-.01.201-.118.03-.051-.08-.128-.345-.156-.269-.023.066-.116-.035-.064.213.058.28.009.292-.095.188-.101-.102-.159-.089-.028.33.028.1.047.203.056.307.004.038-.016.063-.03.035-.294-.55-.327-.284-.43-.237-.02.01-.033.033-.055.035a.478.478 0 0 1-.048-.092c-.142-.334-.134-.311-.187-.327-.075-.022-.12.033-.163.092l.303.814-.063-.169c-.072-.017-.14-.03-.182.036-.03.046-.038.024.072.37.011.032.02.066.024.101-.018.013-.044.004-.065.01-.107.03-.305-.15-.168.458.007.031-.024.026-.046-.006a1.63 1.63 0 0 1-.157-.27c-.174-.402-.226-.376-.235-.232-.01.145-.055.168-.193-.083-.121-.223-.125-.085-.184-.12-.07-.04.043.21.056.305.03.2.013.265-.107.053-.119-.211-.148-.168-.203-.185-.167-.053-.238.172-.487-.116-.038-.045-.07-.029-.07.03.002.302-.107.328-.24.293-.073-.022-.04.095.055.352.05.134.014.185-.031.071-.096-.24-.125-.245-.171-.255-.119-.023-.112.274-.256.184-.083-.052-.11.026-.052.299.046.214.025.26-.095.023-.15-.294-.22-.32-.283-.302-.034.01-.017.079.039.235.1.28.11.404.049.401-.058-.004-.14-.062-.158.023-.023.11-.042.186-.19-.115-.02-.04-.056-.058-.054-.028.028.286-.11.145-.192.132-.07-.012-.086.106-.168.07-.595-.275-.475-.225-1.039.213-.68.53-2.18 1.176-1.9 2.168.044.19.143.36.284.493.406.34 1.145-.033 1.564-.15l.201-.056c.564-.188 1.113-.347 1.578.108a.2.2 0 0 0 .044-.189c.03-.02.093.157.152.137a1.18 1.18 0 0 1-.007-.262c.087-.008.13.054.197.125.047.05.103.067.096-.01-.016-.19.056-.14.106-.15.06-.017.16.062.084-.275-.009-.04.016-.064.03-.037.13.233.126.032.21.144.157.21.147.106.042-.267-.063-.224-.05-.354.065-.163.17.283.096-.045.121-.115a2.072 2.072 0 0 0-.047-.37c-.014-.106.007-.116.08.05.135.302.272.566.318.482.058-.103.093-.256.276-.008.016.022.036.024.032-.003-.046-.28.08-.128.133-.158a.23.23 0 0 1 .182-.013c.06.016.07-.109.193.088.148.239.037-.195.125-.116a.333.333 0 0 0 .085.066c.081.028.214.166.225.044.017-.17.113-.105.176-.138.176-.092.468.13.558-.191.007-.023.06.057.09.09.015.014.048.063.046.05-.05-.332.175.005.147-.277-.007-.056.019-.082.047-.04.162.24.194.096.288.134.033.014.052-.003.058-.049l.24.646c.033.03.059.03.075 0 .045-.09.163-.002.128-.29-.006-.05.03-.047.062 0 .161.232.111-.17.289.114.007.012 0-.046.002-.067.002-.045-.01-.14.01-.127.275.186.349-.17.539-.214.068-.016.098-.127.219-.008.087.086.097-.104.139-.178a.329.329 0 0 0 .021-.104c.016-.117.209.287.167.01-.035-.23.053-.14.087-.19a.219.219 0 0 1 .143-.106c.058-.01.057-.207.199.037.013.024.026.01.025-.018-.02-.306-.037-.78.07-.738.087.036.025-.253-.062-.573-.048-.174-.026-.18.03-.09.056.111.122.218.196.319.062.038.21.34.162.012-.031-.22.06-.126.15.089.15.356.207.445.196.184-.006-.139.114.022.069-.24-.005-.032.027-.028.045.01.147.31.174.188.229.164.044-.02.068-.105.17.056.04.065.072.019.077-.05.015-.201.033-.382.23.028.01.022.029-.015.02-.06-.033-.18.008-.198.04-.143.176.29.173.04.174-.178 0-.124.04-.483.112-.375.162.24.104-.043.162-.167.11-.235-.08-.508.13-.272.089.101.183.245.168-.049-.006-.116.051-.138.105-.07.118.15.165.046.235.02.014-.004.026-.047.04-.019.02-.205.053-.408.1-.61.037-.148.084-.264.129-.395-.032-.045-.062-.07-.08-.021z"
          fill="#222525"/>
</svg>
