<?xml version="1.0" standalone="no"?><!DOCTYPE svg PUBLIC "-//W3C//DTD SVG 1.1//EN"
        "http://www.w3.org/Graphics/SVG/1.1/DTD/svg11.dtd">
<svg class="icon" viewBox="0 0 1024 1024" version="1.1" xmlns="http://www.w3.org/2000/svg"
     width="64" height="64" xmlns:xlink="http://www.w3.org/1999/xlink">
    <defs>
        <style type="text/css"></style>
    </defs>
    <path d="M896.025417 91.428571c36.571429 36.571429 0 128-54.857143 182.857143l-92.013714 92.013715 91.428571 397.714285a18.761143 18.761143 0 0 1-6.838857 18.870857l-73.142857 54.857143a17.444571 17.444571 0 0 1-10.861714 3.437715c-1.133714 0-2.304 0-3.986286-0.585143a16.237714 16.237714 0 0 1-11.995428-9.142857l-159.414858-290.304-148.004571 148.004571 30.281143 110.848a18.651429 18.651429 0 0 1-4.571429 17.700571l-54.857143 54.857143a19.017143 19.017143 0 0 1-13.129142 5.156572H382.928274a18.541714 18.541714 0 0 1-13.714285-7.424l-107.995429-144.018286-144.018286-107.995429c-4.571429-2.852571-6.838857-8.009143-7.424-13.129142s1.718857-10.276571 5.156572-14.299429l54.857143-55.442286a19.017143 19.017143 0 0 1 13.129142-5.156571c1.718857 0 3.437714 0 4.571429 0.585143l110.848 30.281143 148.004571-148.004572-290.304-159.414857A20.114286 20.114286 0 0 1 146.311131 239.981714a19.492571 19.492571 0 0 1 5.156572-15.433143l73.142857-73.142857c4.571429-3.986286 11.446857-6.290286 17.152-4.571428l380.013714 90.843428 91.428572-91.428571c54.857143-54.857143 146.285714-91.428571 182.857143-54.857143z"
          fill="#ffffff"></path>
</svg>
