<svg xmlns="http://www.w3.org/2000/svg" width="86" height="76" fill="none">
    <path d="M55.7 7.5c10.6-9.3 32.2 15.8 18.5 38.9 0 0-15.8 21-31.9 27.7 0 0-28.2-15.9-37.5-39.1C-4.5 11.8 12.9 2.1 19 2.4c6.1.3 16.1-.2 23.4 21.9 0 0 7.5-13 7.7-13.5.2-.5 5.6-3.3 5.6-3.3z"
          fill="#F45D48"/>
    <path d="M85.2 20.3c.1.1-1-.7-1.2-.4.3-.6 1-.8 1.2-1.5.2-.6-.2-1.8-.4-2.3-.6-2-1.3-3.9-2.5-5.1-.4-.4-.9-2.1-1.5-2.7-.2-.3-1-1.1-1.3-1.3l-1.2-.8c-.1-.1-.5.3-.7.1-.3-.2.2-.6 0-.8-.2-.2-2.3-2.5-2-1.6-1.4-.4-2.9-2-4.6-2.4-.7-.2-4.7.1-4.6-.6 0 .2.1.3.2.5.3-.4-3.6 0-3.9.1-.9.2-1.7.4-2.6.8-1.3.5-2.8 1.2-3.9 2-.1.1-2.6 2.5-2.5 2.5-1.8 0-4.7 4.1-6 5.9-.6.8-4.5 6.3-4.2 6.8 0 .1.1.5.1.6.2-.6-.2-.2-.1-.2v.6c0-.1-.3-.7-.3-.2-.1-1.6-3.3-8.8-5.2-8.7.5 0-2.4-3.1-2.7-3.4-1.6-1.7-3.2-3.1-5.2-4.5-3.6-2.4-7.9-3.4-12-2.7C9.5 2.5 3.3 9.5 1.5 17.2c-.9 3.7-1.1 8.1.2 12.1.1 0 1.4-.6 1.2-.2-.2.6-.9 1-1 1.6-.1.6.4 1.7.6 2.2.7 1.8 1.3 3.7 2.3 4.9.3.3 1 2.6 1.4 3.2.2.3.3.7.5.9l.6.8c.4.6.7-.1 1 .3-.4-.4 1.2 4.3 1.2 3 .5.3 1.9 2.9 2.4 3.5.7.8 1.2 1.4 1.9 2.2.2.2.5.3.6.4.3.3.1 1 .2 1.1.4.4.2-.3.5-.3-.1 0 3.3 4.4 3.8 4.9.9 1 1.9 2.1 2.9 2.9.2.2 2.8 1.9 2.8 1.9.2.7 0 .6 1 1.5.3.3 2.9 2.5 3 2.2-.3 1.4 9.9 8.4 11.8 9 2.5.8 5-1.6 7.3-2.9 1.1-.6 6.8-3.9 6.6-5.4 0 .5 3-2.1 3.4-2.4 1.7-1.2 3.2-2.6 4.9-4 3.2-2.6 5.9-5.7 8.4-8.7 5.1-6.2 9.7-12.5 12.4-19.5.5-1.5 3.5-11 1.8-12.1zm-1.5-3.9c.3-.2.3.6 0 .6s0-.6 0-.6zm-39.3 2.7c.3-.4.9-.2.6.3-.1.1-.9.1-.6-.3zm.1.4c.2.5-.6 0 0 0zm-4.9-.8c.1-.1.7.4.6.5-.1.4-1-.2-.6-.5zM21.5 1.8c.3.1.4.4.2.6-.2-.2-.3-.4-.2-.6zm-18 30.7c-.2.2-.4-.6-.1-.6.3 0 .1.6.1.6zm33.4 39c0 .1-.1.8-.4.5-.6-.6.4-.6.4-.5zm.1.8c-.1-.3 0-.4.2-.3.1.2 0 .3-.2.3zm10.4-2.6c0 .2-.2.4-.4.5-.6-.3.4-1.3.4-.5zm20.5-15.8c-.3 0-.4-.2-.4-.4.2 0 .9.4.4.4zm15.9-35.2c-.3-.1-1 1.8-.9 1.7-.1.4.4 1.4.4 2-.1 1.1-1.7 3.8-1.1 4.7-.3-.3.2 1.8.2 1.8 0 .3-.4-.3-.3-.3-.2.2-.2.5-.4.7.4-.4-.5 1.8-.6 2-.7 1.2-.9 2.2-1.7 3.3-1.4 2.2-2.3 4.4-3.7 6.6-1.7 2.6-3.3 4.6-5.3 6.9-.7.9-6.2 6.5-4.2 7-.8 1-.6.1-1-.1.1 0-1.9 1.7-2.1 1.9-.7.7-1.5 1.5-2.1 2.3-.5.7.1.4-.8 1.1-.2.2-2 1.4-1.8 1.5-1.4-.4-2.6 1-4 2.1-1.7 1.4-3.5 2.5-5.2 3.7-.9.7-2.1 1.8-2.9 2.3-.3.2-.2.7-.6 1-.3.2-.9-.2-1.2 0-.5.3-1.4 1.6-2.2 1.7-.9.1-.1-.4-.8-.6-2.1-.6-4.3-2.7-6-4-1.2-.9-3.3-2.7-4.9-4-2.8-2.1-5.9-4.8-8.5-7.3-2-1.9-3.8-4.1-5.6-6.2-.5-.7-4.4-4-4.3-4.4.1-.1.3-.2.4-.1.3-.4-4.3-6.9-4.8-7.7-.7-1.3-1.4-2.9-1.8-4.2-.2-.6-.9-3.9-1.3-4-.2 0-.7-.2-.9-.2-.6.1-.5.7-.3.8.2 0-1 .7-.6-.3.1-.2 1-1.4 1-1.1 0-.7-.8-.8-.9-1.5-.1-.7.1-1.2.2-1.7.1-1.2.5-3.7 0-4.2.1 0 .1-1.7-.5-1.7.2 0 .2.2.3.3.1-.2.1-.5.3-.7-.4.5.2-1.8.3-2 .6-1.4.8-2.2 1.5-3.4 1.3-2.1 2.4-4 4.2-5.7 2.2-2 4.1-3.2 6.8-4 1.9-.6 3.1-.4 5.1-.6.5-.1 2.6-.3 2.2-1.2 1.3.2.3.5.4.9-.1-.2 2.2.9 2.4 1.1.8.4 1.8.9 2.7 1.2.9.4.3-.3 1.3.5.2.2 1.7 1.7 1.7 1.5-.2 1.4 1.2 2.4 2.3 3.7 1.4 1.6 2.3 3.3 3.4 5.1.6 1 1.5 2.2 1.9 3 .3.4.7.2.9.7.2.3-.1 1.3 0 1.8.2.9 1.8 4.1 3 4.1 1.6 0 2.9-5.1 3.6-6.4 1-2.1 1.8-3.1 3.2-5 2.5-3.4 4.7-5.8 8.5-8.1 3.6-2.3 8-2.2 11.6-2.2.1 0 2.4 1.6 2.3.8 0 .2-.1.3-.3.3 0-.2 3.9 3 4 3.1.9.9 1.8 2 2.5 2.9 1.2 1.4 1.6 2.1 2.1 3.7.1.4.7 3.4.9 3.5.3.2.8.2 1.4.2 0 0-.3-1-.1-.9 1.4-.3.1-.2.7.3z"
          fill="#222525"/>
</svg>
