<svg xmlns="http://www.w3.org/2000/svg" enable-background="new 0 0 1024 1024" viewBox="0 0 1024 1024">
    <path d="M930.4,104.7c0,7.6,0,15.2,0,22.8c0,20.1,0,40.3,0,60.4c0,28.9,0,57.7,0,86.6c0,33.3,0,66.6,0,99.9     c0,33.9,0,67.8,0,101.6c0,30.5,0,61,0,91.4c0,23.2,0,46.4,0,69.5c0,11.7,0,23.3,0,35c0,0.7,0,1.3,0,2c0,1,0,1.9-0.1,2.9     c-0.1,1-0.6,4.1-0.1,1.5c-0.3,1.6-0.6,3.1-1.1,4.6c-0.4,1.3-0.8,2.6-1.2,3.8c-0.6,1.6,0.1-0.3,0.2-0.5c-0.4,0.8-0.8,1.6-1.2,2.4     c-0.6,1.2-1.3,2.3-2,3.4c-0.4,0.6-0.7,1.1-1.1,1.6c-1.2,1.9,1.4-1.6,0,0.1c-1.7,2-3.5,3.9-5.5,5.6c-0.5,0.4-1,0.9-1.5,1.3     c0.5-0.4,2.2-1.4-0.1,0c-1.3,0.8-2.6,1.7-3.9,2.4c-0.5,0.3-3.7,1.8-2.4,1.2c1.3-0.5-2,0.7-2.6,0.9c-1.3,0.4-2.6,0.7-3.9,1     c-0.7,0.1-1.3,0.3-2,0.4c1.5-0.3,1.3-0.1-0.1,0c-1.7,0.1-3.4,0.2-5.1,0.2c-8.2,0-16.4,0-24.5,0c-17.7,0-35.5,0-53.2,0     c-25.3,0-50.5,0-75.8,0c-30.4,0-60.7,0-91.1,0c-33.4,0-66.8,0-100.1,0c-34.2,0-68.5,0-102.7,0c-33,0-66.1,0-99.1,0     c-29.4,0-58.7,0-88.1,0c-23.7,0-47.3,0-71,0c-15.8,0-31.6,0-47.4,0c-6,0-12,0.1-18,0c-1.4,0-2.8-0.1-4.2-0.2     c-1.8-0.2,0.3,0,0.6,0.1c-0.7-0.1-1.3-0.3-2-0.4c-1.3-0.3-2.6-0.6-3.9-1c-0.9-0.3-4.5-1.8-2-0.6c-2.6-1.2-5-2.7-7.4-4.2     c-1.4-0.9,0.2,0.2,0.4,0.4c-0.5-0.4-1-0.8-1.5-1.3c-1.1-1-2.3-2.1-3.3-3.2c-0.9-0.9-1.8-1.9-2.6-3c1.6,2-0.2-0.5-0.7-1.2     c-0.8-1.3-1.6-2.6-2.3-4c-0.3-0.6-0.6-1.2-0.9-1.8c0.6,1.3,0.4,1.1,0-0.1c-0.8-2.6-1.5-5.2-2.1-7.8c0.5,2.6,0-0.5-0.1-1.5     c-0.1-0.9-0.1-1.9-0.1-2.8c0-2.1,0-4.3,0-6.4c0-14.6,0-29.2,0-43.8c0-25.1,0-50.2,0-75.3c0-31.6,0-63.2,0-94.7     c0-34.3,0-68.5,0-102.8c0-32.6,0-65.2,0-97.8c0-27.1,0-54.3,0-81.4c0-17.7,0-35.4,0-53.1c0-4.1,0-8.1,0-12.2c0-0.6,0-1.2,0-1.8     c0-1.6,0.1-3.3,0.3-4.9c0.2-1.8,0,0.3-0.1,0.6c0.2-0.9,0.3-1.8,0.5-2.7c0.4-1.5,0.8-3,1.3-4.5c0.2-0.6,0.4-1.3,0.7-1.9     c-0.1,0.2-1,2.1-0.2,0.5c0.6-1.2,1.2-2.4,1.8-3.5c0.7-1.1,1.4-2.2,2.1-3.3c0.9-1.4-0.2,0.2-0.4,0.4c0.7-0.9,1.4-1.7,2.1-2.5     c0.9-1,1.8-1.9,2.8-2.8c0.5-0.4,3.1-2.6,2-1.8c-1.1,0.8,1.8-1.1,2.3-1.4c1.3-0.8,2.7-1.5,4-2.2c0.2-0.1,2.2-1,0.6-0.3     c-1.7,0.7,0.9-0.3,1.3-0.4c1.3-0.4,2.6-0.8,3.9-1.1c0.6-0.2,4.1-0.9,2.7-0.6c-1.7,0.3,0.5-0.1,0.7-0.1c0.9-0.1,1.9-0.1,2.8-0.2     c0.8,0,1.6,0,2.5,0c2.9,0,5.7,0,8.6,0c13.4,0,26.8,0,40.3,0c21.9,0,43.7,0,65.6,0c28.1,0,56.2,0,84.3,0c32.3,0,64.7,0,97,0     c34.1,0,68.2,0,102.3,0c33.8,0,67.6,0,101.4,0c31.3,0,62.7,0,94,0c26.8,0,53.6,0,80.5,0c19.9,0,39.7,0,59.6,0     c10.9,0,21.7,0,32.6,0c1.4,0,2.7,0,4.1,0c1.4,0,2.8,0.1,4.2,0.2c2.9,0.2-1.4-0.4,1.4,0.3c1.5,0.4,3.1,0.7,4.6,1.2     c0.6,0.2,3.9,1.4,2.6,0.9c-1.3-0.5,1.9,0.9,2.4,1.2c1.2,0.6,2.3,1.3,3.4,2c0.6,0.3,1.1,0.7,1.6,1.1c-0.2-0.1-1.7-1.4-0.4-0.3     c1.2,1,2.3,2,3.4,3.1c0.9,0.9,1.8,1.9,2.7,2.9c1.8,2-0.6-1.2,0.8,1.1c1.4,2.3,2.8,4.5,3.9,6.9c-1.1-2.3,0.1,0.5,0.4,1.4     c0.5,1.5,0.9,3,1.2,4.6c0.1,0.7,0.3,1.3,0.4,2c0-0.2-0.2-2.4-0.1-0.6C930.3,101.5,930.4,103.1,930.4,104.7     c0.1,7.8,6.8,15.4,15,15c8-0.4,15.1-6.6,15-15c-0.4-28-19.2-53.4-46.5-60.6c-6.3-1.7-12.8-2.1-19.3-2.1c-10.3,0-20.6,0-30.9,0     c-19.7,0-39.5,0-59.2,0c-26.7,0-53.4,0-80.1,0c-31.7,0-63.4,0-95.1,0c-34.1,0-68.2,0-102.3,0c-34.6,0-69.2,0-103.8,0     c-32.6,0-65.3,0-97.9,0c-28.3,0-56.6,0-84.9,0c-22,0-43.9,0-65.9,0c-13.2,0-26.3,0-39.5,0c-2.6,0-5.3,0-7.9,0     c-17.4,0.1-34.5,6.9-46.4,19.8c-11.2,12.1-17,27.7-17,44.1c0,3.7,0,7.4,0,11.1c0,17.4,0,34.8,0,52.2c0,27.3,0,54.6,0,81.9     c0,32.9,0,65.7,0,98.6c0,34.6,0,69.2,0,103.8c0,31.9,0,63.8,0,95.7c0,25.3,0,50.7,0,76c0,14.4,0,28.9,0,43.3     c0,2.8-0.1,5.7,0.1,8.5c1.6,27.7,21.4,52.8,49.1,58.5c9.5,1.9,19.2,1.5,28.8,1.5c15.4,0,30.8,0,46.3,0c23.7,0,47.4,0,71.1,0     c29.5,0,59,0,88.5,0c33.3,0,66.6,0,99.9,0c34.6,0,69.1,0,103.7,0c33.9,0,67.7,0,101.6,0c30.7,0,61.5,0,92.2,0     c25.2,0,50.5,0,75.7,0c17.7,0,35.5,0,53.2,0c7.8,0,15.6,0.1,23.4,0c35.5-0.3,63.2-28.8,63.3-64.1c0-11.1,0-22.2,0-33.3     c0-23,0-46.1,0-69.1c0-30.6,0-61.2,0-91.8c0-34.3,0-68.7,0-103c0-33.8,0-67.6,0-101.4c0-28.9,0-57.9,0-86.8c0-20.2,0-40.5,0-60.7     c0-7.3,0-14.5,0-21.8c0-7.8-6.9-15.4-15-15C937.3,90.1,930.4,96.3,930.4,104.7z"/>
    <path d="M302.2 974.6c15-27.8 30-55.5 45.1-83.3 23.7-43.9 47.5-87.8 71.2-131.6 5.5-10.1 10.9-20.2 16.4-30.3-4.3 2.5-8.6 5-13 7.4 20.2 0 40.4 0 60.7 0 32.4 0 64.8 0 97.3 0 7.4 0 14.8 0 22.2 0-4.3-2.5-8.6-5-13-7.4 15 27.8 30 55.5 45.1 83.3 23.7 43.9 47.5 87.8 71.2 131.6 5.5 10.1 10.9 20.2 16.4 30.3 3.9 7.1 13.7 9.4 20.5 5.4 7.2-4.2 9.3-13.4 5.4-20.5-15-27.8-30-55.5-45.1-83.3-23.7-43.9-47.5-87.8-71.2-131.6-5.5-10.1-10.9-20.2-16.4-30.3-2.5-4.6-7.8-7.4-13-7.4-20.2 0-40.4 0-60.7 0-32.4 0-64.8 0-97.3 0-7.4 0-14.8 0-22.2 0-5.1 0-10.5 2.8-13 7.4-15 27.8-30 55.5-45.1 83.3-23.7 43.9-47.5 87.8-71.2 131.6-5.5 10.1-10.9 20.2-16.4 30.3-3.9 7.1-1.8 16.3 5.4 20.5C288.5 984 298.3 981.8 302.2 974.6L302.2 974.6zM254 529.1c22.9-22.9 45.8-45.8 68.7-68.7 36.2-36.2 72.4-72.4 108.5-108.5 8.3-8.3 16.6-16.6 24.9-24.9-7.1 0-14.1 0-21.2 0 15.7 15.7 31.4 31.4 47.1 47.1 25 25 50.1 50.1 75.1 75.1 5.7 5.7 11.5 11.5 17.2 17.2 5.7 5.7 15.5 5.7 21.2 0 22-22 44.1-44.1 66.1-66.1 35.1-35.1 70.2-70.2 105.3-105.3 8-8 16.1-16.1 24.1-24.1 5.7-5.7 5.7-15.5 0-21.2-5.7-5.7-15.5-5.7-21.2 0-22 22-44.1 44.1-66.1 66.1-35.1 35.1-70.2 70.2-105.3 105.3-8 8-16.1 16.1-24.1 24.1 7.1 0 14.1 0 21.2 0-15.7-15.7-31.4-31.4-47.1-47.1-25-25-50.1-50.1-75.1-75.1-5.7-5.7-11.5-11.5-17.2-17.2-5.7-5.7-15.5-5.7-21.2 0-22.9 22.9-45.8 45.8-68.7 68.7C330 410.7 293.9 446.8 257.7 483c-8.3 8.3-16.6 16.6-24.9 24.9-5.7 5.7-5.7 15.5 0 21.2C238.6 534.8 248.3 534.8 254 529.1L254 529.1z"/>
</svg>
